<?plantuml 1.2026.1beta2?><svg xmlns="http://www.w3.org/2000/svg" xmlns:xlink="http://www.w3.org/1999/xlink" contentStyleType="text/css" data-diagram-type="DESCRIPTION" height="1086px" preserveAspectRatio="none" style="width:1257px;height:1086px;background:#FFFFFF;" version="1.1" viewBox="0 0 1257 1086" width="1257px" zoomAndPan="magnify"><defs/><g><!--cluster Presentation Layer (API)--><g class="cluster" data-qualified-name="Presentation Layer .API." data-source-line="3" id="ent0002"><path d="M185.93,6 L381.3441,6 A3.75,3.75 0 0 1 383.8441,8.5 L390.8441,28.2969 L390.93,28.2969 A2.5,2.5 0 0 1 393.43,30.7969 L393.43,411.79 A2.5,2.5 0 0 1 390.93,414.29 L185.93,414.29 A2.5,2.5 0 0 1 183.43,411.79 L183.43,8.5 A2.5,2.5 0 0 1 185.93,6" fill="none" style="stroke:#000000;stroke-width:1.5;"/><line style="stroke:#000000;stroke-width:1.5;" x1="183.43" x2="390.8441" y1="28.2969" y2="28.2969"/><text fill="#000000" font-family="sans-serif" font-size="14" font-weight="bold" lengthAdjust="spacing" textLength="194.4141" x="187.43" y="20.9951">Presentation Layer (API)</text></g><!--cluster Domain/Business Layer--><g class="cluster" data-qualified-name="Domain.Business Layer" data-source-line="9" id="ent0006"><path d="M183.93,465.25 L368.7484,465.25 A3.75,3.75 0 0 1 371.2484,467.75 L378.2484,487.5469 L377.93,487.5469 A2.5,2.5 0 0 1 380.43,490.0469 L380.43,576.35 A2.5,2.5 0 0 1 377.93,578.85 L183.93,578.85 A2.5,2.5 0 0 1 181.43,576.35 L181.43,467.75 A2.5,2.5 0 0 1 183.93,465.25" fill="none" style="stroke:#000000;stroke-width:1.5;"/><line style="stroke:#000000;stroke-width:1.5;" x1="181.43" x2="378.2484" y1="487.5469" y2="487.5469"/><text fill="#000000" font-family="sans-serif" font-size="14" font-weight="bold" lengthAdjust="spacing" textLength="183.8184" x="185.43" y="480.2451">Domain/Business Layer</text></g><!--cluster Data Access Layer--><g class="cluster" data-qualified-name="Data Access Layer" data-source-line="13" id="ent0008"><path d="M306.93,629.82 L452.3734,629.82 A3.75,3.75 0 0 1 454.8734,632.32 L461.8734,652.1169 L735.93,652.1169 A2.5,2.5 0 0 1 738.43,654.6169 L738.43,905.47 A2.5,2.5 0 0 1 735.93,907.97 L306.93,907.97 A2.5,2.5 0 0 1 304.43,905.47 L304.43,632.32 A2.5,2.5 0 0 1 306.93,629.82" fill="none" style="stroke:#000000;stroke-width:1.5;"/><line style="stroke:#000000;stroke-width:1.5;" x1="304.43" x2="461.8734" y1="652.1169" y2="652.1169"/><text fill="#000000" font-family="sans-serif" font-size="14" font-weight="bold" lengthAdjust="spacing" textLength="144.4434" x="308.43" y="644.8151">Data Access Layer</text></g><!--cluster Cross-Cutting Concerns--><g class="cluster" data-qualified-name="Cross-Cutting Concerns" data-source-line="19" id="ent0012"><path d="M50.93,794.38 L237.348,794.38 A3.75,3.75 0 0 1 239.848,796.88 L246.848,816.6769 L246.93,816.6769 A2.5,2.5 0 0 1 249.43,819.1769 L249.43,905.47 A2.5,2.5 0 0 1 246.93,907.97 L50.93,907.97 A2.5,2.5 0 0 1 48.43,905.47 L48.43,796.88 A2.5,2.5 0 0 1 50.93,794.38" fill="none" style="stroke:#000000;stroke-width:1.5;"/><line style="stroke:#000000;stroke-width:1.5;" x1="48.43" x2="246.848" y1="816.6769" y2="816.6769"/><text fill="#000000" font-family="sans-serif" font-size="14" font-weight="bold" lengthAdjust="spacing" textLength="185.418" x="52.43" y="809.3751">Cross-Cutting Concerns</text></g><!--cluster PostgreSQL Database--><g class="cluster" data-qualified-name="PostgreSQL Database" data-source-line="23" id="ent0014"><path d="M366.43,966.97 C366.43,956.97 459.93,956.97 459.93,956.97 C459.93,956.97 553.43,956.97 553.43,966.97 L553.43,1059.27 C553.43,1069.27 459.93,1069.27 459.93,1069.27 C459.93,1069.27 366.43,1069.27 366.43,1059.27 L366.43,966.97" fill="none" style="stroke:#181818;stroke-width:1;"/><path d="M366.43,966.97 C366.43,976.97 459.93,976.97 459.93,976.97 C459.93,976.97 553.43,976.97 553.43,966.97" fill="none" style="stroke:#181818;stroke-width:1;"/><text fill="#000000" font-family="sans-serif" font-size="14" font-weight="bold" lengthAdjust="spacing" textLength="171.6094" x="374.1253" y="991.9651">PostgreSQL Database</text></g><!--entity ExpressApp--><g class="entity" data-qualified-name="Presentation Layer .API..ExpressApp" data-source-line="4" id="ent0003"><rect fill="#F1F1F1" height="62.5938" rx="2.5" ry="2.5" style="stroke:#181818;stroke-width:0.5;" width="126.7754" x="249.05" y="41"/><rect fill="#F1F1F1" height="10" style="stroke:#181818;stroke-width:0.5;" width="15" x="355.8254" y="46"/><rect fill="#F1F1F1" height="2" style="stroke:#181818;stroke-width:0.5;" width="4" x="353.8254" y="48"/><rect fill="#F1F1F1" height="2" style="stroke:#181818;stroke-width:0.5;" width="4" x="353.8254" y="52"/><text fill="#000000" font-family="sans-serif" font-size="14" lengthAdjust="spacing" textLength="86.7754" x="264.05" y="73.9951">Express App</text><text fill="#000000" font-family="sans-serif" font-size="14" lengthAdjust="spacing" textLength="54.1816" x="264.05" y="90.292">index.js</text></g><!--entity Routes--><g class="entity" data-qualified-name="Presentation Layer .API..Routes" data-source-line="5" id="ent0004"><rect fill="#F1F1F1" height="62.5938" rx="2.5" ry="2.5" style="stroke:#181818;stroke-width:0.5;" width="100.2246" x="216.32" y="192.13"/><rect fill="#F1F1F1" height="10" style="stroke:#181818;stroke-width:0.5;" width="15" x="296.5446" y="197.13"/><rect fill="#F1F1F1" height="2" style="stroke:#181818;stroke-width:0.5;" width="4" x="294.5446" y="199.13"/><rect fill="#F1F1F1" height="2" style="stroke:#181818;stroke-width:0.5;" width="4" x="294.5446" y="203.13"/><text fill="#000000" font-family="sans-serif" font-size="14" lengthAdjust="spacing" textLength="48.5625" x="231.32" y="225.1251">Routes</text><text fill="#000000" font-family="sans-serif" font-size="14" lengthAdjust="spacing" textLength="60.2246" x="231.32" y="241.422">routes.js</text></g><!--entity Controller--><g class="entity" data-qualified-name="Presentation Layer .API..Controller" data-source-line="6" id="ent0005"><rect fill="#F1F1F1" height="62.5938" rx="2.5" ry="2.5" style="stroke:#181818;stroke-width:0.5;" width="154.2764" x="200.3" y="335.69"/><rect fill="#F1F1F1" height="10" style="stroke:#181818;stroke-width:0.5;" width="15" x="334.5764" y="340.69"/><rect fill="#F1F1F1" height="2" style="stroke:#181818;stroke-width:0.5;" width="4" x="332.5764" y="342.69"/><rect fill="#F1F1F1" height="2" style="stroke:#181818;stroke-width:0.5;" width="4" x="332.5764" y="346.69"/><text fill="#000000" font-family="sans-serif" font-size="14" lengthAdjust="spacing" textLength="106.1553" x="215.3" y="368.6851">Task Controller</text><text fill="#000000" font-family="sans-serif" font-size="14" lengthAdjust="spacing" textLength="114.2764" x="215.3" y="384.982">taskController.js</text></g><!--entity Service--><g class="entity" data-qualified-name="Domain.Business Layer.Service" data-source-line="10" id="ent0007"><rect fill="#F1F1F1" height="62.5938" rx="2.5" ry="2.5" style="stroke:#181818;stroke-width:0.5;" width="136.8447" x="216.01" y="500.25"/><rect fill="#F1F1F1" height="10" style="stroke:#181818;stroke-width:0.5;" width="15" x="332.8547" y="505.25"/><rect fill="#F1F1F1" height="2" style="stroke:#181818;stroke-width:0.5;" width="4" x="330.8547" y="507.25"/><rect fill="#F1F1F1" height="2" style="stroke:#181818;stroke-width:0.5;" width="4" x="330.8547" y="511.25"/><text fill="#000000" font-family="sans-serif" font-size="14" lengthAdjust="spacing" textLength="88.7236" x="231.01" y="533.2451">Task Service</text><text fill="#000000" font-family="sans-serif" font-size="14" lengthAdjust="spacing" textLength="96.8447" x="231.01" y="549.542">taskService.js</text></g><!--entity DAO--><g class="entity" data-qualified-name="Data Access Layer.DAO" data-source-line="14" id="ent0009"><rect fill="#F1F1F1" height="62.5938" rx="2.5" ry="2.5" style="stroke:#181818;stroke-width:0.5;" width="120.3223" x="320.27" y="664.82"/><rect fill="#F1F1F1" height="10" style="stroke:#181818;stroke-width:0.5;" width="15" x="420.5923" y="669.82"/><rect fill="#F1F1F1" height="2" style="stroke:#181818;stroke-width:0.5;" width="4" x="418.5923" y="671.82"/><rect fill="#F1F1F1" height="2" style="stroke:#181818;stroke-width:0.5;" width="4" x="418.5923" y="675.82"/><text fill="#000000" font-family="sans-serif" font-size="14" lengthAdjust="spacing" textLength="75.6533" x="335.27" y="697.8151">Tasks DAO</text><text fill="#000000" font-family="sans-serif" font-size="14" lengthAdjust="spacing" textLength="80.3223" x="335.27" y="714.112">tasksDao.js</text></g><!--entity TaskModel--><g class="entity" data-qualified-name="Data Access Layer.TaskModel" data-source-line="15" id="ent0010"><rect fill="#F1F1F1" height="62.5938" rx="2.5" ry="2.5" style="stroke:#181818;stroke-width:0.5;" width="119.0166" x="399.93" y="829.38"/><rect fill="#F1F1F1" height="10" style="stroke:#181818;stroke-width:0.5;" width="15" x="498.9466" y="834.38"/><rect fill="#F1F1F1" height="2" style="stroke:#181818;stroke-width:0.5;" width="4" x="496.9466" y="836.38"/><rect fill="#F1F1F1" height="2" style="stroke:#181818;stroke-width:0.5;" width="4" x="496.9466" y="840.38"/><text fill="#000000" font-family="sans-serif" font-size="14" lengthAdjust="spacing" textLength="79.0166" x="414.93" y="862.3751">Task Model</text><text fill="#000000" font-family="sans-serif" font-size="14" lengthAdjust="spacing" textLength="48.166" x="414.93" y="878.672">Task.js</text></g><!--entity Database--><g class="entity" data-qualified-name="Data Access Layer.Database" data-source-line="16" id="ent0011"><rect fill="#F1F1F1" height="62.5938" rx="2.5" ry="2.5" style="stroke:#181818;stroke-width:0.5;" width="156.1699" x="475.35" y="664.82"/><rect fill="#F1F1F1" height="10" style="stroke:#181818;stroke-width:0.5;" width="15" x="611.5199" y="669.82"/><rect fill="#F1F1F1" height="2" style="stroke:#181818;stroke-width:0.5;" width="4" x="609.5199" y="671.82"/><rect fill="#F1F1F1" height="2" style="stroke:#181818;stroke-width:0.5;" width="4" x="609.5199" y="675.82"/><text fill="#000000" font-family="sans-serif" font-size="14" lengthAdjust="spacing" textLength="116.1699" x="490.35" y="697.8151">Database Config</text><text fill="#000000" font-family="sans-serif" font-size="14" lengthAdjust="spacing" textLength="80.541" x="490.35" y="714.112">database.js</text></g><!--entity Logger--><g class="entity" data-qualified-name="Cross-Cutting Concerns.Logger" data-source-line="20" id="ent0013"><rect fill="#F1F1F1" height="62.5938" rx="2.5" ry="2.5" style="stroke:#181818;stroke-width:0.5;" width="134.3838" x="81.24" y="829.38"/><rect fill="#F1F1F1" height="10" style="stroke:#181818;stroke-width:0.5;" width="15" x="195.6238" y="834.38"/><rect fill="#F1F1F1" height="2" style="stroke:#181818;stroke-width:0.5;" width="4" x="193.6238" y="836.38"/><rect fill="#F1F1F1" height="2" style="stroke:#181818;stroke-width:0.5;" width="4" x="193.6238" y="840.38"/><text fill="#000000" font-family="sans-serif" font-size="14" lengthAdjust="spacing" textLength="48.5078" x="96.24" y="862.3751">Logger</text><text fill="#000000" font-family="sans-serif" font-size="14" lengthAdjust="spacing" textLength="94.3838" x="96.24" y="878.672">utils/logger.js</text></g><!--entity TasksTable--><g class="entity" data-qualified-name="PostgreSQL Database.TasksTable" data-source-line="24" id="ent0015"><rect fill="#F1F1F1" height="46.2969" rx="2.5" ry="2.5" style="stroke:#181818;stroke-width:0.5;" width="116.6719" x="401.1" y="1006.97"/><rect fill="#F1F1F1" height="10" style="stroke:#181818;stroke-width:0.5;" width="15" x="497.7719" y="1011.97"/><rect fill="#F1F1F1" height="2" style="stroke:#181818;stroke-width:0.5;" width="4" x="495.7719" y="1013.97"/><rect fill="#F1F1F1" height="2" style="stroke:#181818;stroke-width:0.5;" width="4" x="495.7719" y="1017.97"/><text fill="#000000" font-family="sans-serif" font-size="14" lengthAdjust="spacing" textLength="76.6719" x="416.1" y="1039.9651">tasks table</text></g><g class="entity" data-qualified-name="GMN27" data-source-line="40" id="ent0028"><path d="M410.82,29.47 L410.82,68.3 L375.97,72.3 L410.82,76.3 L410.82,115.1341 A0,0 0 0 0 410.82,115.1341 L642.048,115.1341 A0,0 0 0 0 642.048,115.1341 L642.048,39.47 L632.048,29.47 L410.82,29.47 A0,0 0 0 0 410.82,29.47" fill="#FEFFDD" style="stroke:#181818;stroke-width:0.5;"/><path d="M632.048,29.47 L632.048,39.47 L642.048,39.47 L632.048,29.47" fill="#FEFFDD" style="stroke:#181818;stroke-width:0.5;"/><text fill="#000000" font-family="sans-serif" font-size="13" lengthAdjust="spacing" textLength="71.8745" x="416.82" y="46.5369">Entry point</text><text fill="#000000" font-family="sans-serif" font-size="13" lengthAdjust="spacing" textLength="149.208" x="416.82" y="61.6697">Sets up Express server</text><text fill="#000000" font-family="sans-serif" font-size="13" lengthAdjust="spacing" textLength="186.7036" x="416.82" y="76.8025">Configures JSON middleware</text><text fill="#000000" font-family="sans-serif" font-size="13" lengthAdjust="spacing" textLength="172.1294" x="416.82" y="91.9353">Establishes DB connection</text><text fill="#000000" font-family="sans-serif" font-size="13" lengthAdjust="spacing" textLength="210.228" x="416.82" y="107.0681">Enforces migration-only schema</text></g><g class="entity" data-qualified-name="GMN30" data-source-line="48" id="ent0031"><path d="M560.27,331.72 L560.27,402.2513 L802.6064,402.2513 L802.6064,341.72 L792.6064,331.72 L560.27,331.72" fill="#FEFFDD" style="stroke:#181818;stroke-width:0.5;"/><path d="M792.6064,331.72 L792.6064,341.72 L802.6064,341.72 L792.6064,331.72" fill="#FEFFDD" style="stroke:#181818;stroke-width:1;"/><text fill="#000000" font-family="sans-serif" font-size="13" lengthAdjust="spacing" textLength="221.3364" x="566.27" y="348.7869">Handles HTTP requests/responses</text><text fill="#000000" font-family="sans-serif" font-size="13" lengthAdjust="spacing" textLength="92.7456" x="566.27" y="363.9197">Error handling</text><text fill="#000000" font-family="sans-serif" font-size="13" lengthAdjust="spacing" textLength="83.6812" x="566.27" y="379.0525">Status codes</text><text fill="#000000" font-family="sans-serif" font-size="13" lengthAdjust="spacing" textLength="209.5107" x="566.27" y="394.1853">All CRUD methods implemented</text></g><g class="entity" data-qualified-name="GMN33" data-source-line="55" id="ent0034"><path d="M478.18,496.29 L478.18,527.55 L353.23,531.55 L478.18,535.55 L478.18,566.8213 A0,0 0 0 0 478.18,566.8213 L708.6907,566.8213 A0,0 0 0 0 708.6907,566.8213 L708.6907,506.29 L698.6907,496.29 L478.18,496.29 A0,0 0 0 0 478.18,496.29" fill="#FEFFDD" style="stroke:#181818;stroke-width:0.5;"/><path d="M698.6907,496.29 L698.6907,506.29 L708.6907,506.29 L698.6907,496.29" fill="#FEFFDD" style="stroke:#181818;stroke-width:0.5;"/><text fill="#000000" font-family="sans-serif" font-size="13" lengthAdjust="spacing" textLength="128.7813" x="484.18" y="513.3569">Business logic layer</text><text fill="#000000" font-family="sans-serif" font-size="13" lengthAdjust="spacing" textLength="157.333" x="484.18" y="528.4897">Orchestrates operations</text><text fill="#000000" font-family="sans-serif" font-size="13" lengthAdjust="spacing" textLength="157.0601" x="484.18" y="543.6225">Validates business rules</text><text fill="#000000" font-family="sans-serif" font-size="13" lengthAdjust="spacing" textLength="209.5107" x="484.18" y="558.7553">All CRUD methods implemented</text></g><g class="entity" data-qualified-name="GMN36" data-source-line="62" id="ent0037"><path d="M754.3,660.85 L754.3,731.3812 L996.5729,731.3812 L996.5729,670.85 L986.5729,660.85 L754.3,660.85" fill="#FEFFDD" style="stroke:#181818;stroke-width:0.5;"/><path d="M986.5729,660.85 L986.5729,670.85 L996.5729,670.85 L986.5729,660.85" fill="#FEFFDD" style="stroke:#181818;stroke-width:1;"/><text fill="#000000" font-family="sans-serif" font-size="13" lengthAdjust="spacing" textLength="178.5024" x="760.3" y="677.9169">Data Access Object pattern</text><text fill="#000000" font-family="sans-serif" font-size="13" lengthAdjust="spacing" textLength="132.5898" x="760.3" y="693.0497">Uses Sequelize ORM</text><text fill="#000000" font-family="sans-serif" font-size="13" lengthAdjust="spacing" textLength="221.2729" x="760.3" y="708.1825">Missing retrieveAllTasks() method</text><text fill="#000000" font-family="sans-serif" font-size="13" lengthAdjust="spacing" textLength="156.8252" x="760.3" y="723.3153">Connects to PostgreSQL</text></g><g class="entity" data-qualified-name="GMN39" data-source-line="69" id="ent0040"><path d="M1031.99,660.85 L1031.99,731.3812 L1250.8718,731.3812 L1250.8718,670.85 L1240.8718,660.85 L1031.99,660.85" fill="#FEFFDD" style="stroke:#181818;stroke-width:0.5;"/><path d="M1240.8718,660.85 L1240.8718,670.85 L1250.8718,670.85 L1240.8718,660.85" fill="#FEFFDD" style="stroke:#181818;stroke-width:1;"/><text fill="#000000" font-family="sans-serif" font-size="13" lengthAdjust="spacing" textLength="153.1499" x="1037.99" y="677.9169">Sequelize configuration</text><text fill="#000000" font-family="sans-serif" font-size="13" lengthAdjust="spacing" textLength="125.563" x="1037.99" y="693.0497">Connection pooling</text><text fill="#000000" font-family="sans-serif" font-size="13" lengthAdjust="spacing" textLength="157.498" x="1037.99" y="708.1825">sync() method poisoned</text><text fill="#000000" font-family="sans-serif" font-size="13" lengthAdjust="spacing" textLength="197.8818" x="1037.99" y="723.3153">Migration-only schema control</text></g><!--link ExpressApp to Routes--><g class="link" data-entity-1="ent0003" data-entity-2="ent0004" data-link-type="dependency" data-source-line="27" id="lnk16"><path d="M303.01,103.84 C295.1,129.48 285.6184,160.2265 277.6884,185.9365" fill="none" id="ExpressApp-to-Routes" style="stroke:#181818;stroke-width:1;"/><polygon fill="#181818" points="275.92,191.67,282.395,184.2488,277.3937,186.8921,274.7503,181.8908,275.92,191.67" style="stroke:#181818;stroke-width:1;"/><text fill="#000000" font-family="sans-serif" font-size="13" lengthAdjust="spacing" textLength="58.1255" x="290.43" y="158.1969">uses /api</text></g><!--link ExpressApp to Database--><g class="link" data-entity-1="ent0003" data-entity-2="ent0011" data-link-type="dependency" data-source-line="28" id="lnk17"><path d="M354.83,104.04 C386.9,131.16 425.43,173.86 425.43,222.43 C425.43,222.43 425.43,222.43 425.43,532.55 C425.43,587.69 466.7451,631.4266 503.6051,660.5966" fill="none" id="ExpressApp-to-Database" style="stroke:#181818;stroke-width:1;"/><polygon fill="#181818" points="508.31,664.32,503.7348,655.5983,504.3892,661.2172,498.7703,661.8716,508.31,664.32" style="stroke:#181818;stroke-width:1;"/><text fill="#000000" font-family="sans-serif" font-size="13" lengthAdjust="spacing" textLength="98.8394" x="426.43" y="371.5569">connects to DB</text></g><!--link Routes to Controller--><g class="link" data-entity-1="ent0004" data-entity-2="ent0005" data-link-type="dependency" data-source-line="29" id="lnk18"><path d="M259.8,254.97 C257.6,269.21 256.21,286.37 258.43,301.72 C260.05,312.89 261.399,319.0873 264.649,329.6073" fill="none" id="Routes-to-Controller" style="stroke:#181818;stroke-width:1;"/><polygon fill="#181818" points="266.42,335.34,267.5852,325.5603,264.9441,330.5628,259.9417,327.9217,266.42,335.34" style="stroke:#181818;stroke-width:1;"/><text fill="#000000" font-family="sans-serif" font-size="13" lengthAdjust="spacing" textLength="139.6421" x="259.43" y="297.7869">routes HTTP requests</text></g><!--link Controller to Service--><g class="link" data-entity-1="ent0005" data-entity-2="ent0007" data-link-type="dependency" data-source-line="30" id="lnk19"><path d="M275.13,398.7 C274.44,409.32 273.77,421.3 273.43,432.25 C273.2,439.81 272.93,441.72 273.43,449.25 C274.56,466.02 276.0938,478.6773 278.3838,493.8373" fill="none" id="Controller-to-Service" style="stroke:#181818;stroke-width:1;"/><polygon fill="#181818" points="279.28,499.77,281.8909,490.2735,278.5332,494.8261,273.9806,491.4684,279.28,499.77" style="stroke:#181818;stroke-width:1;"/><text fill="#000000" font-family="sans-serif" font-size="13" lengthAdjust="spacing" textLength="124.6108" x="274.43" y="445.3169">calls business logic</text></g><!--link Controller to Logger--><g class="link" data-entity-1="ent0005" data-entity-2="ent0013" data-link-type="dependency" data-source-line="31" id="lnk20"><path d="M226.96,398.71 C169.57,436.93 78.97,508.13 41.43,596.82 C6,680.53 73.2911,775.5753 115.8311,824.6753" fill="none" id="Controller-to-Logger" style="stroke:#181818;stroke-width:1;"/><polygon fill="#181818" points="119.76,829.21,116.8898,819.7886,116.4859,825.431,110.8435,825.0271,119.76,829.21" style="stroke:#181818;stroke-width:1;"/><text fill="#000000" font-family="sans-serif" font-size="13" lengthAdjust="spacing" textLength="157.6821" x="42.43" y="609.8869">logs requests/responses</text></g><!--link Service to DAO--><g class="link" data-entity-1="ent0007" data-entity-2="ent0009" data-link-type="dependency" data-source-line="32" id="lnk21"><path d="M289.16,563.19 C292.46,578.99 297.86,598.18 306.43,613.82 C316.71,632.56 327.9294,646.2154 342.0594,660.4254" fill="none" id="Service-to-DAO" style="stroke:#181818;stroke-width:1;"/><polygon fill="#181818" points="346.29,664.68,342.7804,655.4777,342.7645,661.1345,337.1076,661.1185,346.29,664.68" style="stroke:#181818;stroke-width:1;"/><text fill="#000000" font-family="sans-serif" font-size="13" lengthAdjust="spacing" textLength="91.9902" x="307.43" y="609.8869">accesses data</text></g><!--link Service to Logger--><g class="link" data-entity-1="ent0007" data-entity-2="ent0013" data-link-type="dependency" data-source-line="33" id="lnk22"><path d="M249.18,563.33 C232.99,579.26 214.88,599.94 203.43,621.82 C167.57,690.35 155.4404,776.0853 151.1104,823.0853" fill="none" id="Service-to-Logger" style="stroke:#181818;stroke-width:1;"/><polygon fill="#181818" points="150.56,829.06,155.3688,820.4649,151.0187,824.0811,147.4025,819.731,150.56,829.06" style="stroke:#181818;stroke-width:1;"/><text fill="#000000" font-family="sans-serif" font-size="13" lengthAdjust="spacing" textLength="99.9121" x="204.43" y="700.6769">logs operations</text></g><!--link DAO to TaskModel--><g class="link" data-entity-1="ent0009" data-entity-2="ent0010" data-link-type="dependency" data-source-line="34" id="lnk23"><path d="M358.59,727.58 C350.23,743.16 344.41,762.2 352.43,778.38 C362.75,799.17 376.2694,812.6855 394.9894,825.5855" fill="none" id="DAO-to-TaskModel" style="stroke:#181818;stroke-width:1;"/><polygon fill="#181818" points="399.93,828.99,394.7889,820.5895,395.8129,826.1529,390.2495,827.1769,399.93,828.99" style="stroke:#181818;stroke-width:1;"/><text fill="#000000" font-family="sans-serif" font-size="13" lengthAdjust="spacing" textLength="141.3115" x="353.43" y="774.4469">uses Sequelize model</text></g><!--link DAO to Logger--><g class="link" data-entity-1="ent0009" data-entity-2="ent0013" data-link-type="dependency" data-source-line="35" id="lnk24"><path d="M320.13,715.87 C291.59,726.5 258.02,741.65 231.43,761.38 C206.32,780.01 187.3418,802.7807 172.1418,824.0207" fill="none" id="DAO-to-Logger" style="stroke:#181818;stroke-width:1;"/><polygon fill="#181818" points="168.65,828.9,177.1405,823.9089,171.5598,824.8339,170.6348,819.2532,168.65,828.9" style="stroke:#181818;stroke-width:1;"/><text fill="#000000" font-family="sans-serif" font-size="13" lengthAdjust="spacing" textLength="107.9419" x="232.43" y="774.4469">logs data access</text></g><!--link Database to TaskModel--><g class="link" data-entity-1="ent0011" data-entity-2="ent0010" data-link-type="dependency" data-source-line="36" id="lnk25"><path d="M535.75,727.69 C519,756.66 496.9734,794.7458 480.1934,823.7658" fill="none" id="Database-to-TaskModel" style="stroke:#181818;stroke-width:1;"/><polygon fill="#181818" points="477.19,828.96,485.1579,823.171,479.6928,824.6315,478.2323,819.1665,477.19,828.96" style="stroke:#181818;stroke-width:1;"/><text fill="#000000" font-family="sans-serif" font-size="13" lengthAdjust="spacing" textLength="182" x="515.43" y="774.4469">provides Sequelize instance</text></g><!--link TaskModel to TasksTable--><g class="link" data-entity-1="ent0010" data-entity-2="ent0015" data-link-type="dependency" data-source-line="37" id="lnk26"><path d="M459.43,892.39 C459.43,925.43 459.43,971.2 459.43,1000.64" fill="none" id="TaskModel-to-TasksTable" style="stroke:#181818;stroke-width:1;"/><polygon fill="#181818" points="459.43,1006.64,463.43,997.64,459.43,1001.64,455.43,997.64,459.43,1006.64" style="stroke:#181818;stroke-width:1;"/><text fill="#000000" font-family="sans-serif" font-size="13" lengthAdjust="spacing" textLength="52.8379" x="460.43" y="937.0369">maps to</text></g><!--link Controller to GMN30--><g class="link" data-entity-1="ent0005" data-entity-2="ent0031" data-link-type="association" data-source-line="48" id="lnk32"><path d="M317.35,335.34 C340.13,319.31 370.03,301.53 399.93,293.22 C449.61,279.42 465.51,282.49 515.93,293.22 C551.32,300.75 588.31,316.4 618.32,331.36" fill="none" id="Controller-GMN30" style="stroke:#181818;stroke-width:1;stroke-dasharray:7,7;"/></g><!--link DAO to GMN36--><g class="link" data-entity-1="ent0009" data-entity-2="ent0037" data-link-type="association" data-source-line="62" id="lnk38"><path d="M402.42,664.53 C419.42,643.07 445.05,616.46 474.93,604.33 C525.59,583.78 668.22,589.86 720.93,604.33 C760.95,615.32 801.09,639.66 830.42,660.52" fill="none" id="DAO-GMN36" style="stroke:#181818;stroke-width:1;stroke-dasharray:7,7;"/></g><!--link Database to GMN39--><g class="link" data-entity-1="ent0011" data-entity-2="ent0040" data-link-type="association" data-source-line="69" id="lnk41"><path d="M606.12,664.38 C645.33,642.69 701.01,615.87 753.93,604.33 C806.69,592.83 945.08,589.26 996.93,604.33 C1034.89,615.37 1072.41,639.71 1099.7,660.55" fill="none" id="Database-GMN39" style="stroke:#181818;stroke-width:1;stroke-dasharray:7,7;"/></g><?plantuml-src dLGzSzim3DtrAr1DoU1wxz0xVrtJdXEdjjEbxi18iCo49bM2IkFs-jyBI9HaEydIoIRm-F08FE5TZbjj4PQpoNfqysa-WymeeYGfLVQe2eJqrYEX3IfePs6k3kZXOdJx-JA5Fmd0zzbpoG22KLbkhBOvFhz_e1-W26A64u9RkYeWRQolVrjC4vNyMj4ZJ9mDtXc3ViCLwR4_jnVwIFBtIEJKxPMsmt55_1XMK-kC2clc5VeddM536myjPpoU4ggWO9Hbhv4HJ4UBXeccohKq7EpANRiSpSRA_pOj_-kmW8J-NX7AUxQwsDWy1ZgoU3uHDV6EQ32fGj2saAiPUajHsTmLXVIj2jhGqDIdbgt92LTRX-VgA1GULr_dNR78L3yCE6ImKqvhEGf3FrOO33x62S87I2lYtw4gTNgEwLxBgCnPYrbWVWVJSPh4-mBhPol0nYXmjLxVWiUV5LAWD3d2o9KukffO6KDmtpg06w2p5_Yc4GBdF7MyGrPREiiFI9EMiXO-MWXMrJvWCTAzKyGPeIlHrryA4ybbWNI3xvgqah96_qROIxo7dh59EMYACwPjuWlEqhiddP_mQaj1iJtIf4UszvfHoiMzAcKEQP9O5n2yBdO1tFRqovrn0mzGEcq3drR8ewlA5WB4lM1dGJHonK7uibhSm5xdkS5VogDmaBX9quwpqp543t2RQlwjy_n4lb4qlHiuQmv0sGxtAa6RWwWxrtYq202kbELYPsRfXofLl7SUTeBZRqSUmXkj8fQIr_cHCJ1PtarXZs7dSWAzBmtkUV5X_gQ6Td40Z4zi1qOs1eSNdXz1WP-5nzxWp3TbT5w7EyVwolo_b6Rv76-jnVq3znXA5G9l2KxUdLfliRpcuBKcacNYCNYDJyZ5QuzSNCRopMYxJxRV6czBQLSN75NBeZrKdFgaim1RoyMPqC5cNM6n73cBUQto5Mi8frYW4_8F?></g></svg>