<?plantuml 1.2026.1beta2?><svg xmlns="http://www.w3.org/2000/svg" xmlns:xlink="http://www.w3.org/1999/xlink" contentStyleType="text/css" data-diagram-type="DESCRIPTION" height="1324px" preserveAspectRatio="none" style="width:1489px;height:1324px;background:#FFFFFF;" version="1.1" viewBox="0 0 1489 1324" width="1489px" zoomAndPan="magnify"><defs/><g><!--cluster Presentation Layer (API)--><g class="cluster" data-qualified-name="Presentation Layer .API." data-source-line="3" id="ent0002"><path d="M594.5,6 L789.9141,6 A3.75,3.75 0 0 1 792.4141,8.5 L799.4141,28.2969 L1005.5,28.2969 A2.5,2.5 0 0 1 1008,30.7969 L1008,471.6 A2.5,2.5 0 0 1 1005.5,474.1 L594.5,474.1 A2.5,2.5 0 0 1 592,471.6 L592,8.5 A2.5,2.5 0 0 1 594.5,6" fill="none" style="stroke:#000000;stroke-width:1.5;"/><line style="stroke:#000000;stroke-width:1.5;" x1="592" x2="799.4141" y1="28.2969" y2="28.2969"/><text fill="#000000" font-family="sans-serif" font-size="14" font-weight="bold" lengthAdjust="spacing" textLength="194.4141" x="596" y="20.9951">Presentation Layer (API)</text></g><!--cluster Domain/Business Layer--><g class="cluster" data-qualified-name="Domain.Business Layer" data-source-line="10" id="ent0007"><path d="M466.5,591.85 L651.3184,591.85 A3.75,3.75 0 0 1 653.8184,594.35 L660.8184,614.1469 L906.5,614.1469 A2.5,2.5 0 0 1 909,616.6469 L909,702.94 A2.5,2.5 0 0 1 906.5,705.44 L466.5,705.44 A2.5,2.5 0 0 1 464,702.94 L464,594.35 A2.5,2.5 0 0 1 466.5,591.85" fill="none" style="stroke:#000000;stroke-width:1.5;"/><line style="stroke:#000000;stroke-width:1.5;" x1="464" x2="660.8184" y1="614.1469" y2="614.1469"/><text fill="#000000" font-family="sans-serif" font-size="14" font-weight="bold" lengthAdjust="spacing" textLength="183.8184" x="468" y="606.8451">Domain/Business Layer</text></g><!--cluster Data Access Layer--><g class="cluster" data-qualified-name="Data Access Layer" data-source-line="15" id="ent0010"><path d="M8.5,591.85 L153.9434,591.85 A3.75,3.75 0 0 1 156.4434,594.35 L163.4434,614.1469 L437.5,614.1469 A2.5,2.5 0 0 1 440,616.6469 L440,1143.53 A2.5,2.5 0 0 1 437.5,1146.03 L8.5,1146.03 A2.5,2.5 0 0 1 6,1143.53 L6,594.35 A2.5,2.5 0 0 1 8.5,591.85" fill="none" style="stroke:#000000;stroke-width:1.5;"/><line style="stroke:#000000;stroke-width:1.5;" x1="6" x2="163.4434" y1="614.1469" y2="614.1469"/><text fill="#000000" font-family="sans-serif" font-size="14" font-weight="bold" lengthAdjust="spacing" textLength="144.4434" x="10" y="606.8451">Data Access Layer</text></g><!--cluster Cross-Cutting Concerns--><g class="cluster" data-qualified-name="Cross-Cutting Concerns" data-source-line="22" id="ent0015"><path d="M694.5,1032.44 L880.918,1032.44 A3.75,3.75 0 0 1 883.418,1034.94 L890.418,1054.7369 L890.5,1054.7369 A2.5,2.5 0 0 1 893,1057.2369 L893,1143.53 A2.5,2.5 0 0 1 890.5,1146.03 L694.5,1146.03 A2.5,2.5 0 0 1 692,1143.53 L692,1034.94 A2.5,2.5 0 0 1 694.5,1032.44" fill="none" style="stroke:#000000;stroke-width:1.5;"/><line style="stroke:#000000;stroke-width:1.5;" x1="692" x2="890.418" y1="1054.7369" y2="1054.7369"/><text fill="#000000" font-family="sans-serif" font-size="14" font-weight="bold" lengthAdjust="spacing" textLength="185.418" x="696" y="1047.4351">Cross-Cutting Concerns</text></g><!--cluster PostgreSQL Database--><g class="cluster" data-qualified-name="PostgreSQL Database" data-source-line="26" id="ent0017"><path d="M106,1205.03 C106,1195.03 199.5,1195.03 199.5,1195.03 C199.5,1195.03 293,1195.03 293,1205.03 L293,1297.33 C293,1307.33 199.5,1307.33 199.5,1307.33 C199.5,1307.33 106,1307.33 106,1297.33 L106,1205.03" fill="none" style="stroke:#181818;stroke-width:1;"/><path d="M106,1205.03 C106,1215.03 199.5,1215.03 199.5,1215.03 C199.5,1215.03 293,1215.03 293,1205.03" fill="none" style="stroke:#181818;stroke-width:1;"/><text fill="#000000" font-family="sans-serif" font-size="14" font-weight="bold" lengthAdjust="spacing" textLength="171.6094" x="113.6953" y="1230.0251">PostgreSQL Database</text></g><!--entity ExpressApp--><g class="entity" data-qualified-name="Presentation Layer .API..ExpressApp" data-source-line="4" id="ent0003"><rect fill="#F1F1F1" height="62.5938" rx="2.5" ry="2.5" style="stroke:#181818;stroke-width:0.5;" width="126.7754" x="614.61" y="41"/><rect fill="#F1F1F1" height="10" style="stroke:#181818;stroke-width:0.5;" width="15" x="721.3854" y="46"/><rect fill="#F1F1F1" height="2" style="stroke:#181818;stroke-width:0.5;" width="4" x="719.3854" y="48"/><rect fill="#F1F1F1" height="2" style="stroke:#181818;stroke-width:0.5;" width="4" x="719.3854" y="52"/><text fill="#000000" font-family="sans-serif" font-size="14" lengthAdjust="spacing" textLength="86.7754" x="629.61" y="73.9951">Express App</text><text fill="#000000" font-family="sans-serif" font-size="14" lengthAdjust="spacing" textLength="54.1816" x="629.61" y="90.292">index.js</text></g><!--entity Routes--><g class="entity" data-qualified-name="Presentation Layer .API..Routes" data-source-line="5" id="ent0004"><rect fill="#F1F1F1" height="62.5938" rx="2.5" ry="2.5" style="stroke:#181818;stroke-width:0.5;" width="145.4375" x="608.28" y="222.26"/><rect fill="#F1F1F1" height="10" style="stroke:#181818;stroke-width:0.5;" width="15" x="733.7175" y="227.26"/><rect fill="#F1F1F1" height="2" style="stroke:#181818;stroke-width:0.5;" width="4" x="731.7175" y="229.26"/><rect fill="#F1F1F1" height="2" style="stroke:#181818;stroke-width:0.5;" width="4" x="731.7175" y="233.26"/><text fill="#000000" font-family="sans-serif" font-size="14" lengthAdjust="spacing" textLength="105.4375" x="623.28" y="255.2551">Routes Factory</text><text fill="#000000" font-family="sans-serif" font-size="14" lengthAdjust="spacing" textLength="60.2246" x="623.28" y="271.552">routes.js</text></g><!--entity ControllerFactory--><g class="entity" data-qualified-name="Presentation Layer .API..ControllerFactory" data-source-line="6" id="ent0005"><rect fill="#F1F1F1" height="62.5938" rx="2.5" ry="2.5" style="stroke:#181818;stroke-width:0.5;" width="203.0303" x="788.48" y="222.26"/><rect fill="#F1F1F1" height="10" style="stroke:#181818;stroke-width:0.5;" width="15" x="971.5103" y="227.26"/><rect fill="#F1F1F1" height="2" style="stroke:#181818;stroke-width:0.5;" width="4" x="969.5103" y="229.26"/><rect fill="#F1F1F1" height="2" style="stroke:#181818;stroke-width:0.5;" width="4" x="969.5103" y="233.26"/><text fill="#000000" font-family="sans-serif" font-size="14" lengthAdjust="spacing" textLength="163.0303" x="803.48" y="255.2551">Task Controller Factory</text><text fill="#000000" font-family="sans-serif" font-size="14" lengthAdjust="spacing" textLength="114.2764" x="803.48" y="271.552">taskController.js</text></g><!--entity Controller--><g class="entity" data-qualified-name="Presentation Layer .API..Controller" data-source-line="7" id="ent0006"><rect fill="#F1F1F1" height="46.2969" rx="2.5" ry="2.5" style="stroke:#181818;stroke-width:0.5;" width="210.1533" x="726.92" y="411.8"/><rect fill="#F1F1F1" height="10" style="stroke:#181818;stroke-width:0.5;" width="15" x="917.0733" y="416.8"/><rect fill="#F1F1F1" height="2" style="stroke:#181818;stroke-width:0.5;" width="4" x="915.0733" y="418.8"/><rect fill="#F1F1F1" height="2" style="stroke:#181818;stroke-width:0.5;" width="4" x="915.0733" y="422.8"/><text fill="#000000" font-family="sans-serif" font-size="14" lengthAdjust="spacing" textLength="170.1533" x="741.92" y="444.7951">Task Controller Instance</text></g><!--entity ServiceFactory--><g class="entity" data-qualified-name="Domain.Business Layer.ServiceFactory" data-source-line="11" id="ent0008"><rect fill="#F1F1F1" height="62.5938" rx="2.5" ry="2.5" style="stroke:#181818;stroke-width:0.5;" width="185.5986" x="480.2" y="626.85"/><rect fill="#F1F1F1" height="10" style="stroke:#181818;stroke-width:0.5;" width="15" x="645.7986" y="631.85"/><rect fill="#F1F1F1" height="2" style="stroke:#181818;stroke-width:0.5;" width="4" x="643.7986" y="633.85"/><rect fill="#F1F1F1" height="2" style="stroke:#181818;stroke-width:0.5;" width="4" x="643.7986" y="637.85"/><text fill="#000000" font-family="sans-serif" font-size="14" lengthAdjust="spacing" textLength="145.5986" x="495.2" y="659.8451">Task Service Factory</text><text fill="#000000" font-family="sans-serif" font-size="14" lengthAdjust="spacing" textLength="96.8447" x="495.2" y="676.142">taskService.js</text></g><!--entity Service--><g class="entity" data-qualified-name="Domain.Business Layer.Service" data-source-line="12" id="ent0009"><rect fill="#F1F1F1" height="46.2969" rx="2.5" ry="2.5" style="stroke:#181818;stroke-width:0.5;" width="192.7217" x="700.64" y="635"/><rect fill="#F1F1F1" height="10" style="stroke:#181818;stroke-width:0.5;" width="15" x="873.3617" y="640"/><rect fill="#F1F1F1" height="2" style="stroke:#181818;stroke-width:0.5;" width="4" x="871.3617" y="642"/><rect fill="#F1F1F1" height="2" style="stroke:#181818;stroke-width:0.5;" width="4" x="871.3617" y="646"/><text fill="#000000" font-family="sans-serif" font-size="14" lengthAdjust="spacing" textLength="152.7217" x="715.64" y="667.9951">Task Service Instance</text></g><!--entity DAO--><g class="entity" data-qualified-name="Data Access Layer.DAO" data-source-line="16" id="ent0011"><rect fill="#F1F1F1" height="62.5938" rx="2.5" ry="2.5" style="stroke:#181818;stroke-width:0.5;" width="120.3223" x="303.84" y="865.04"/><rect fill="#F1F1F1" height="10" style="stroke:#181818;stroke-width:0.5;" width="15" x="404.1623" y="870.04"/><rect fill="#F1F1F1" height="2" style="stroke:#181818;stroke-width:0.5;" width="4" x="402.1623" y="872.04"/><rect fill="#F1F1F1" height="2" style="stroke:#181818;stroke-width:0.5;" width="4" x="402.1623" y="876.04"/><text fill="#000000" font-family="sans-serif" font-size="14" lengthAdjust="spacing" textLength="75.6533" x="318.84" y="898.0351">Tasks DAO</text><text fill="#000000" font-family="sans-serif" font-size="14" lengthAdjust="spacing" textLength="80.3223" x="318.84" y="914.332">tasksDao.js</text></g><!--entity TaskModel--><g class="entity" data-qualified-name="Data Access Layer.TaskModel" data-source-line="17" id="ent0012"><rect fill="#F1F1F1" height="62.5938" rx="2.5" ry="2.5" style="stroke:#181818;stroke-width:0.5;" width="119.0166" x="121.49" y="1067.44"/><rect fill="#F1F1F1" height="10" style="stroke:#181818;stroke-width:0.5;" width="15" x="220.5066" y="1072.44"/><rect fill="#F1F1F1" height="2" style="stroke:#181818;stroke-width:0.5;" width="4" x="218.5066" y="1074.44"/><rect fill="#F1F1F1" height="2" style="stroke:#181818;stroke-width:0.5;" width="4" x="218.5066" y="1078.44"/><text fill="#000000" font-family="sans-serif" font-size="14" lengthAdjust="spacing" textLength="79.0166" x="136.49" y="1100.4351">Task Model</text><text fill="#000000" font-family="sans-serif" font-size="14" lengthAdjust="spacing" textLength="48.166" x="136.49" y="1116.732">Task.js</text></g><!--entity Database--><g class="entity" data-qualified-name="Data Access Layer.Database" data-source-line="18" id="ent0013"><rect fill="#F1F1F1" height="62.5938" rx="2.5" ry="2.5" style="stroke:#181818;stroke-width:0.5;" width="170.3545" x="98.82" y="865.04"/><rect fill="#F1F1F1" height="10" style="stroke:#181818;stroke-width:0.5;" width="15" x="249.1745" y="870.04"/><rect fill="#F1F1F1" height="2" style="stroke:#181818;stroke-width:0.5;" width="4" x="247.1745" y="872.04"/><rect fill="#F1F1F1" height="2" style="stroke:#181818;stroke-width:0.5;" width="4" x="247.1745" y="876.04"/><text fill="#000000" font-family="sans-serif" font-size="14" lengthAdjust="spacing" textLength="130.3545" x="113.82" y="898.0351">Database Runtime</text><text fill="#000000" font-family="sans-serif" font-size="14" lengthAdjust="spacing" textLength="116.792" x="113.82" y="914.332">data/database.js</text></g><!--entity DatabaseConfig--><g class="entity" data-qualified-name="Data Access Layer.DatabaseConfig" data-source-line="19" id="ent0014"><rect fill="#F1F1F1" height="62.5938" rx="2.5" ry="2.5" style="stroke:#181818;stroke-width:0.5;" width="204.3496" x="81.83" y="626.85"/><rect fill="#F1F1F1" height="10" style="stroke:#181818;stroke-width:0.5;" width="15" x="266.1796" y="631.85"/><rect fill="#F1F1F1" height="2" style="stroke:#181818;stroke-width:0.5;" width="4" x="264.1796" y="633.85"/><rect fill="#F1F1F1" height="2" style="stroke:#181818;stroke-width:0.5;" width="4" x="264.1796" y="637.85"/><text fill="#000000" font-family="sans-serif" font-size="14" lengthAdjust="spacing" textLength="142.3242" x="96.83" y="659.8451">Database Config CLI</text><text fill="#000000" font-family="sans-serif" font-size="14" lengthAdjust="spacing" textLength="164.3496" x="96.83" y="676.142">data/config/database.js</text></g><!--entity Logger--><g class="entity" data-qualified-name="Cross-Cutting Concerns.Logger" data-source-line="23" id="ent0016"><rect fill="#F1F1F1" height="62.5938" rx="2.5" ry="2.5" style="stroke:#181818;stroke-width:0.5;" width="134.3838" x="724.81" y="1067.44"/><rect fill="#F1F1F1" height="10" style="stroke:#181818;stroke-width:0.5;" width="15" x="839.1938" y="1072.44"/><rect fill="#F1F1F1" height="2" style="stroke:#181818;stroke-width:0.5;" width="4" x="837.1938" y="1074.44"/><rect fill="#F1F1F1" height="2" style="stroke:#181818;stroke-width:0.5;" width="4" x="837.1938" y="1078.44"/><text fill="#000000" font-family="sans-serif" font-size="14" lengthAdjust="spacing" textLength="48.5078" x="739.81" y="1100.4351">Logger</text><text fill="#000000" font-family="sans-serif" font-size="14" lengthAdjust="spacing" textLength="94.3838" x="739.81" y="1116.732">utils/logger.js</text></g><!--entity TasksTable--><g class="entity" data-qualified-name="PostgreSQL Database.TasksTable" data-source-line="27" id="ent0018"><rect fill="#F1F1F1" height="46.2969" rx="2.5" ry="2.5" style="stroke:#181818;stroke-width:0.5;" width="116.6719" x="122.66" y="1245.03"/><rect fill="#F1F1F1" height="10" style="stroke:#181818;stroke-width:0.5;" width="15" x="219.3319" y="1250.03"/><rect fill="#F1F1F1" height="2" style="stroke:#181818;stroke-width:0.5;" width="4" x="217.3319" y="1252.03"/><rect fill="#F1F1F1" height="2" style="stroke:#181818;stroke-width:0.5;" width="4" x="217.3319" y="1256.03"/><text fill="#000000" font-family="sans-serif" font-size="14" lengthAdjust="spacing" textLength="76.6719" x="137.66" y="1278.0251">tasks table</text></g><g class="entity" data-qualified-name="GMN33" data-source-line="46" id="ent0034"><path d="M1024.39,14.33 L1024.39,68.29 L741.62,72.29 L1024.39,76.29 L1024.39,130.2597 A0,0 0 0 0 1024.39,130.2597 L1255.618,130.2597 A0,0 0 0 0 1255.618,130.2597 L1255.618,24.33 L1245.618,14.33 L1024.39,14.33 A0,0 0 0 0 1024.39,14.33" fill="#FEFFDD" style="stroke:#181818;stroke-width:0.5;"/><path d="M1245.618,14.33 L1245.618,24.33 L1255.618,24.33 L1245.618,14.33" fill="#FEFFDD" style="stroke:#181818;stroke-width:0.5;"/><text fill="#000000" font-family="sans-serif" font-size="13" lengthAdjust="spacing" textLength="71.8745" x="1030.39" y="31.3969">Entry point</text><text fill="#000000" font-family="sans-serif" font-size="13" lengthAdjust="spacing" textLength="149.208" x="1030.39" y="46.5297">Sets up Express server</text><text fill="#000000" font-family="sans-serif" font-size="13" lengthAdjust="spacing" textLength="186.7036" x="1030.39" y="61.6625">Configures JSON middleware</text><text fill="#000000" font-family="sans-serif" font-size="13" lengthAdjust="spacing" textLength="172.1294" x="1030.39" y="76.7953">Establishes DB connection</text><text fill="#000000" font-family="sans-serif" font-size="13" lengthAdjust="spacing" textLength="145.8057" x="1030.39" y="91.9281">Verifies schema exists</text><text fill="#000000" font-family="sans-serif" font-size="13" lengthAdjust="spacing" textLength="210.228" x="1030.39" y="107.061">Enforces migration-only schema</text><text fill="#000000" font-family="sans-serif" font-size="13" lengthAdjust="spacing" textLength="140.791" x="1030.39" y="122.1938">Factory pattern for DI</text></g><g class="entity" data-qualified-name="GMN36" data-source-line="56" id="ent0037"><path d="M1023.83,361.85 L1023.83,430.95 L937.45,434.95 L1023.83,438.95 L1023.83,508.0453 A0,0 0 0 0 1023.83,508.0453 L1266.1664,508.0453 A0,0 0 0 0 1266.1664,508.0453 L1266.1664,371.85 L1256.1664,361.85 L1023.83,361.85 A0,0 0 0 0 1023.83,361.85" fill="#FEFFDD" style="stroke:#181818;stroke-width:0.5;"/><path d="M1256.1664,361.85 L1256.1664,371.85 L1266.1664,371.85 L1256.1664,361.85" fill="#FEFFDD" style="stroke:#181818;stroke-width:0.5;"/><text fill="#000000" font-family="sans-serif" font-size="13" lengthAdjust="spacing" textLength="158.0439" x="1029.83" y="378.9169">Factory function pattern</text><text fill="#000000" font-family="sans-serif" font-size="13" lengthAdjust="spacing" textLength="221.3364" x="1029.83" y="394.0497">Handles HTTP requests/responses</text><text fill="#000000" font-family="sans-serif" font-size="13" lengthAdjust="spacing" textLength="92.7456" x="1029.83" y="409.1825">Error handling</text><text fill="#000000" font-family="sans-serif" font-size="13" lengthAdjust="spacing" textLength="83.6812" x="1029.83" y="424.3153">Status codes</text><text fill="#000000" font-family="sans-serif" font-size="13" lengthAdjust="spacing" textLength="213.8906" x="1029.83" y="439.4481">All CRUD methods implemented:</text><text fill="#000000" font-family="sans-serif" font-size="13" lengthAdjust="spacing" textLength="64.8984" x="1029.83" y="454.581">- listTasks</text><text fill="#000000" font-family="sans-serif" font-size="13" lengthAdjust="spacing" textLength="80.5835" x="1029.83" y="469.7138">- createTask</text><text fill="#000000" font-family="sans-serif" font-size="13" lengthAdjust="spacing" textLength="91.6094" x="1029.83" y="484.8466">- updateTasks</text><text fill="#000000" font-family="sans-serif" font-size="13" lengthAdjust="spacing" textLength="86.7598" x="1029.83" y="499.9794">- deleteTasks</text></g><g class="entity" data-qualified-name="GMN39" data-source-line="68" id="ent0040"><path d="M998.55,585.05 L998.55,654.15 L893.57,658.15 L998.55,662.15 L998.55,731.2453 A0,0 0 0 0 998.55,731.2453 L1233.4406,731.2453 A0,0 0 0 0 1233.4406,731.2453 L1233.4406,595.05 L1223.4406,585.05 L998.55,585.05 A0,0 0 0 0 998.55,585.05" fill="#FEFFDD" style="stroke:#181818;stroke-width:0.5;"/><path d="M1223.4406,585.05 L1223.4406,595.05 L1233.4406,595.05 L1223.4406,585.05" fill="#FEFFDD" style="stroke:#181818;stroke-width:0.5;"/><text fill="#000000" font-family="sans-serif" font-size="13" lengthAdjust="spacing" textLength="158.0439" x="1004.55" y="602.1169">Factory function pattern</text><text fill="#000000" font-family="sans-serif" font-size="13" lengthAdjust="spacing" textLength="128.7813" x="1004.55" y="617.2497">Business logic layer</text><text fill="#000000" font-family="sans-serif" font-size="13" lengthAdjust="spacing" textLength="157.333" x="1004.55" y="632.3825">Orchestrates operations</text><text fill="#000000" font-family="sans-serif" font-size="13" lengthAdjust="spacing" textLength="157.0601" x="1004.55" y="647.5153">Validates business rules</text><text fill="#000000" font-family="sans-serif" font-size="13" lengthAdjust="spacing" textLength="213.8906" x="1004.55" y="662.6481">All CRUD methods implemented:</text><text fill="#000000" font-family="sans-serif" font-size="13" lengthAdjust="spacing" textLength="64.8984" x="1004.55" y="677.781">- listTasks</text><text fill="#000000" font-family="sans-serif" font-size="13" lengthAdjust="spacing" textLength="80.5835" x="1004.55" y="692.9138">- createTask</text><text fill="#000000" font-family="sans-serif" font-size="13" lengthAdjust="spacing" textLength="91.6094" x="1004.55" y="708.0466">- updateTasks</text><text fill="#000000" font-family="sans-serif" font-size="13" lengthAdjust="spacing" textLength="86.7598" x="1004.55" y="723.1794">- deleteTasks</text></g><g class="entity" data-qualified-name="GMN42" data-source-line="80" id="ent0043"><path d="M999.25,823.24 L999.25,969.4353 L1198.7524,969.4353 L1198.7524,833.24 L1188.7524,823.24 L999.25,823.24" fill="#FEFFDD" style="stroke:#181818;stroke-width:0.5;"/><path d="M1188.7524,823.24 L1188.7524,833.24 L1198.7524,833.24 L1188.7524,823.24" fill="#FEFFDD" style="stroke:#181818;stroke-width:1;"/><text fill="#000000" font-family="sans-serif" font-size="13" lengthAdjust="spacing" textLength="178.5024" x="1005.25" y="840.3069">Data Access Object pattern</text><text fill="#000000" font-family="sans-serif" font-size="13" lengthAdjust="spacing" textLength="132.5898" x="1005.25" y="855.4397">Uses Sequelize ORM</text><text fill="#000000" font-family="sans-serif" font-size="13" lengthAdjust="spacing" textLength="172.123" x="1005.25" y="870.5725">All methods implemented:</text><text fill="#000000" font-family="sans-serif" font-size="13" lengthAdjust="spacing" textLength="113.0073" x="1005.25" y="885.7053">- retrieveAllTasks</text><text fill="#000000" font-family="sans-serif" font-size="13" lengthAdjust="spacing" textLength="118.8154" x="1005.25" y="900.8381">- retrieveTaskById</text><text fill="#000000" font-family="sans-serif" font-size="13" lengthAdjust="spacing" textLength="80.5835" x="1005.25" y="915.971">- createTask</text><text fill="#000000" font-family="sans-serif" font-size="13" lengthAdjust="spacing" textLength="84.8364" x="1005.25" y="931.1038">- updateTask</text><text fill="#000000" font-family="sans-serif" font-size="13" lengthAdjust="spacing" textLength="79.9868" x="1005.25" y="946.2366">- deleteTask</text><text fill="#000000" font-family="sans-serif" font-size="13" lengthAdjust="spacing" textLength="156.8252" x="1005.25" y="961.3694">Connects to PostgreSQL</text></g><g class="entity" data-qualified-name="GMN45" data-source-line="92" id="ent0046"><path d="M1233.78,845.94 L1233.78,946.7369 L1482.2102,946.7369 L1482.2102,855.94 L1472.2102,845.94 L1233.78,845.94" fill="#FEFFDD" style="stroke:#181818;stroke-width:0.5;"/><path d="M1472.2102,845.94 L1472.2102,855.94 L1482.2102,855.94 L1472.2102,845.94" fill="#FEFFDD" style="stroke:#181818;stroke-width:1;"/><text fill="#000000" font-family="sans-serif" font-size="13" lengthAdjust="spacing" textLength="208.4761" x="1239.78" y="863.0069">Sequelize runtime configuration</text><text fill="#000000" font-family="sans-serif" font-size="13" lengthAdjust="spacing" textLength="182.0127" x="1239.78" y="878.1397">Connection pooling enabled</text><text fill="#000000" font-family="sans-serif" font-size="13" lengthAdjust="spacing" textLength="157.498" x="1239.78" y="893.2725">sync() method poisoned</text><text fill="#000000" font-family="sans-serif" font-size="13" lengthAdjust="spacing" textLength="197.8818" x="1239.78" y="908.4053">Migration-only schema control</text><text fill="#000000" font-family="sans-serif" font-size="13" lengthAdjust="spacing" textLength="227.4302" x="1239.78" y="923.5381">verifySchema() checks table exists</text><text fill="#000000" font-family="sans-serif" font-size="13" lengthAdjust="spacing" textLength="184.5137" x="1239.78" y="938.671">Test environment guardrails</text></g><!--link ExpressApp to Routes--><g class="link" data-entity-1="ent0003" data-entity-2="ent0004" data-link-type="dependency" data-source-line="30" id="lnk19"><path d="M675.99,103.63 C674.69,127.68 673.5,162.13 675,192.26 C675.48,201.93 675.7805,206.461 676.7505,215.961" fill="none" id="ExpressApp-to-Routes" style="stroke:#181818;stroke-width:1;"/><polygon fill="#181818" points="677.36,221.93,680.4251,212.5702,676.8521,216.9559,672.4665,213.3829,677.36,221.93" style="stroke:#181818;stroke-width:1;"/><text fill="#000000" font-family="sans-serif" font-size="13" lengthAdjust="spacing" textLength="124.1475" x="676" y="173.3269">creates router with</text><text fill="#000000" font-family="sans-serif" font-size="13" lengthAdjust="spacing" textLength="65.8188" x="705.1643" y="188.4597">/api prefix</text></g><!--link ExpressApp to Database--><g class="link" data-entity-1="ent0003" data-entity-2="ent0013" data-link-type="dependency" data-source-line="31" id="lnk20"><path d="M614.27,82.02 C525.13,98.21 374,141.96 374,252.56 C374,252.56 374,252.56 374,659.15 C374,749.4 293.625,821.2603 237.335,861.1603" fill="none" id="ExpressApp-to-Database" style="stroke:#181818;stroke-width:1;"/><polygon fill="#181818" points="232.44,864.63,242.0956,862.6888,236.5192,861.7386,237.4694,856.1621,232.44,864.63" style="stroke:#181818;stroke-width:1;"/><text fill="#000000" font-family="sans-serif" font-size="13" lengthAdjust="spacing" textLength="94.2754" x="382.1951" y="424.5169">getSequelize()</text><text fill="#000000" font-family="sans-serif" font-size="13" lengthAdjust="spacing" textLength="108.6655" x="375" y="439.6497">testConnection()</text><text fill="#000000" font-family="sans-serif" font-size="13" lengthAdjust="spacing" textLength="99.3281" x="379.6687" y="454.7825">verifySchema()</text></g><!--link ExpressApp to ControllerFactory--><g class="link" data-entity-1="ent0003" data-entity-2="ent0005" data-link-type="dependency" data-source-line="32" id="lnk21"><path d="M728.45,104.07 C752.56,119.7 781.26,139.71 805,160.26 C826.74,179.08 844.7519,198.4774 860.8819,217.2674" fill="none" id="ExpressApp-to-ControllerFactory" style="stroke:#181818;stroke-width:1;"/><polygon fill="#181818" points="864.79,221.82,861.9629,212.3856,861.5332,218.0261,855.8927,217.5965,864.79,221.82" style="stroke:#181818;stroke-width:1;"/><text fill="#000000" font-family="sans-serif" font-size="13" lengthAdjust="spacing" textLength="146.1357" x="838" y="180.8269">createTaskController()</text></g><!--link ExpressApp to ServiceFactory--><g class="link" data-entity-1="ent0003" data-entity-2="ent0008" data-link-type="dependency" data-source-line="33" id="lnk22"><path d="M653.95,104.04 C633,132.79 604.01,177.85 591,222.26 C548.14,368.56 561.0168,548.4035 568.6768,620.5835" fill="none" id="ExpressApp-to-ServiceFactory" style="stroke:#181818;stroke-width:1;"/><polygon fill="#181818" points="569.31,626.55,572.3379,617.1781,568.7823,621.5779,564.3826,618.0224,569.31,626.55" style="stroke:#181818;stroke-width:1;"/><text fill="#000000" font-family="sans-serif" font-size="13" lengthAdjust="spacing" textLength="129.9492" x="572" y="327.9169">createTaskService()</text></g><!--link Routes to Controller--><g class="link" data-entity-1="ent0004" data-entity-2="ent0006" data-link-type="dependency" data-source-line="34" id="lnk23"><path d="M706.62,284.99 C736.74,320.78 782.1759,374.7599 809.1059,406.7499" fill="none" id="Routes-to-Controller" style="stroke:#181818;stroke-width:1;"/><polygon fill="#181818" points="812.97,411.34,810.234,401.8788,809.7499,407.5149,804.1138,407.0309,812.97,411.34" style="stroke:#181818;stroke-width:1;"/><text fill="#000000" font-family="sans-serif" font-size="13" lengthAdjust="spacing" textLength="139.6421" x="743" y="327.9169">routes HTTP requests</text></g><!--link Controller to Service--><g class="link" data-entity-1="ent0006" data-entity-2="ent0009" data-link-type="dependency" data-source-line="35" id="lnk24"><path d="M820.99,458.4 C811.7,478.66 799.13,509.57 794,538.05 C788.03,571.23 790.1757,604.4815 793.0257,628.5915" fill="none" id="Controller-to-Service" style="stroke:#181818;stroke-width:1;"/><polygon fill="#181818" points="793.73,634.55,796.6458,625.1427,793.143,629.5846,788.7011,626.0818,793.73,634.55" style="stroke:#181818;stroke-width:1;"/><text fill="#000000" font-family="sans-serif" font-size="13" lengthAdjust="spacing" textLength="124.6108" x="795" y="551.1169">calls business logic</text></g><!--link Controller to Logger--><g class="link" data-entity-1="ent0006" data-entity-2="ent0016" data-link-type="dependency" data-source-line="36" id="lnk25"><path d="M861.44,458.29 C883.34,476.89 911.51,505.53 924,538.05 C992.82,717.22 975.72,791.41 904,969.44 C888.37,1008.25 860.2401,1039.3145 834.2301,1062.9545" fill="none" id="Controller-to-Logger" style="stroke:#181818;stroke-width:1;"/><polygon fill="#181818" points="829.79,1066.99,839.1405,1063.8968,833.4901,1063.6271,833.7598,1057.9766,829.79,1066.99" style="stroke:#181818;stroke-width:1;"/><text fill="#000000" font-family="sans-serif" font-size="13" lengthAdjust="spacing" textLength="157.6821" x="966" y="781.8069">logs requests/responses</text></g><!--link Service to DAO--><g class="link" data-entity-1="ent0009" data-entity-2="ent0011" data-link-type="dependency" data-source-line="37" id="lnk26"><path d="M763.06,681.72 C740.64,696.36 710.44,715.55 683,731.24 C594.74,781.72 494.711,831.9161 429.911,863.5761" fill="none" id="Service-to-DAO" style="stroke:#181818;stroke-width:1;"/><polygon fill="#181818" points="424.52,866.21,434.3624,865.8531,429.0125,864.0151,430.8505,858.6651,424.52,866.21" style="stroke:#181818;stroke-width:1;"/><text fill="#000000" font-family="sans-serif" font-size="13" lengthAdjust="spacing" textLength="91.9902" x="624" y="781.8069">accesses data</text></g><!--link Service to Logger--><g class="link" data-entity-1="ent0009" data-entity-2="ent0016" data-link-type="dependency" data-source-line="38" id="lnk27"><path d="M796.75,681.5 C795.92,754.12 793.3683,977.5104 792.4183,1060.9804" fill="none" id="Service-to-Logger" style="stroke:#181818;stroke-width:1;"/><polygon fill="#181818" points="792.35,1066.98,796.4522,1058.0261,792.4069,1061.9803,788.4527,1057.9351,792.35,1066.98" style="stroke:#181818;stroke-width:1;"/><text fill="#000000" font-family="sans-serif" font-size="13" lengthAdjust="spacing" textLength="99.9121" x="796" y="900.9069">logs operations</text></g><!--link DAO to TaskModel--><g class="link" data-entity-1="ent0011" data-entity-2="ent0012" data-link-type="dependency" data-source-line="39" id="lnk28"><path d="M336.21,927.78 C301.81,965.44 247.616,1024.7894 213.106,1062.5794" fill="none" id="DAO-to-TaskModel" style="stroke:#181818;stroke-width:1;"/><polygon fill="#181818" points="209.06,1067.01,218.0827,1063.0615,212.4317,1063.3179,212.1753,1057.6668,209.06,1067.01" style="stroke:#181818;stroke-width:1;"/><text fill="#000000" font-family="sans-serif" font-size="13" lengthAdjust="spacing" textLength="141.3115" x="268" y="1012.5069">uses Sequelize model</text></g><!--link DAO to Logger--><g class="link" data-entity-1="ent0011" data-entity-2="ent0016" data-link-type="dependency" data-source-line="40" id="lnk29"><path d="M424.41,925.63 C504.14,962.96 638.546,1025.886 720.846,1064.416" fill="none" id="DAO-to-Logger" style="stroke:#181818;stroke-width:1;"/><polygon fill="#181818" points="726.28,1066.96,719.825,1059.5214,721.7517,1064.84,716.433,1066.7667,726.28,1066.96" style="stroke:#181818;stroke-width:1;"/><text fill="#000000" font-family="sans-serif" font-size="13" lengthAdjust="spacing" textLength="107.9419" x="617" y="1012.5069">logs data access</text></g><!--link Database to TaskModel--><g class="link" data-entity-1="ent0013" data-entity-2="ent0012" data-link-type="dependency" data-source-line="41" id="lnk30"><path d="M123.97,928.03 C97.34,945.12 68.74,969.11 54,999.44 C36.14,1036.17 74.732,1060.8497 115.792,1077.1197" fill="none" id="Database-to-TaskModel" style="stroke:#181818;stroke-width:1;"/><polygon fill="#181818" points="121.37,1079.33,114.4765,1072.2959,116.7216,1077.4881,111.5294,1079.7333,121.37,1079.33" style="stroke:#181818;stroke-width:1;"/><text fill="#000000" font-family="sans-serif" font-size="13" lengthAdjust="spacing" textLength="182" x="55" y="1012.5069">provides Sequelize instance</text></g><!--link DatabaseConfig to Database--><g class="link" data-entity-1="ent0014" data-entity-2="ent0013" data-link-type="dependency" data-source-line="42" id="lnk31"><path d="M184,689.54 C184,734.77 184,813.31 184,858.69" fill="none" id="DatabaseConfig-to-Database" style="stroke:#181818;stroke-width:1;stroke-dasharray:7,7;"/><polygon fill="#181818" points="184,864.69,188,855.69,184,859.69,180,855.69,184,864.69" style="stroke:#181818;stroke-width:1;"/><text fill="#000000" font-family="sans-serif" font-size="13" lengthAdjust="spacing" textLength="95.6973" x="185" y="774.3069">CLI config only</text><text fill="#000000" font-family="sans-serif" font-size="13" lengthAdjust="spacing" textLength="90.5112" x="187.593" y="789.4397">(sequelize-cli)</text></g><!--link TaskModel to TasksTable--><g class="link" data-entity-1="ent0012" data-entity-2="ent0018" data-link-type="dependency" data-source-line="43" id="lnk32"><path d="M181,1130.45 C181,1163.49 181,1209.26 181,1238.7" fill="none" id="TaskModel-to-TasksTable" style="stroke:#181818;stroke-width:1;"/><polygon fill="#181818" points="181,1244.7,185,1235.7,181,1239.7,177,1235.7,181,1244.7" style="stroke:#181818;stroke-width:1;"/><text fill="#000000" font-family="sans-serif" font-size="13" lengthAdjust="spacing" textLength="52.8379" x="182" y="1175.0969">maps to</text></g><!--link DAO to GMN42--><g class="link" data-entity-1="ent0011" data-entity-2="ent0043" data-link-type="association" data-source-line="80" id="lnk44"><path d="M421.67,864.58 C529.09,809.79 766,709.58 954.5,777.24 C981.73,787.02 1007.49,804.39 1029.52,822.9" fill="none" id="DAO-GMN42" style="stroke:#181818;stroke-width:1;stroke-dasharray:7,7;"/></g><!--link Database to GMN45--><g class="link" data-entity-1="ent0013" data-entity-2="ent0046" data-link-type="association" data-source-line="92" id="lnk47"><path d="M204.72,864.56 C225.68,835.62 261,794.81 303.5,777.24 C395.41,739.27 1104.13,745.9 1198.5,777.24 C1239.66,790.92 1278.8,819.81 1308,845.71" fill="none" id="Database-GMN45" style="stroke:#181818;stroke-width:1;stroke-dasharray:7,7;"/></g><?plantuml-src nLKxbzew4Exv5HCgjc3fKznpM20ttCE6pKBIX1HQUp1APCcHPB8a9_yzCx9aO_RHtihMFBvvVjAR7FTI8zmlPjlfXtzN2yYKS6umg4JsNHG8mpkB3hKNNXeDAt522wFftV9g2By705yMZnKPE9XMrKvBdUFZzJVt5OI3g245szsRsgE3ToBpnfvssePpicsqRBSLxZlCZFRMA4MnMWTFYawU73j9D7mEOwcT5ph32u_1dxCovwOKKazkQaVje7f2fR76WBT1UvGPzXEAmfHDF5wcabnxUKHXFmdX1KopxBa47CodwoQgcmkJGfAmZNDhSbGxpVz9pVz1p4OC_o0SJRlMNfQuqpb99daKjv3nt7EXjkrb0RFLCdfbGV2YSsFVgsvcZNFZMUszr0K3PcYrYoMkJ56WtUdQI-KcAfmIPgDZh1IDrj8uNrZSV5or8IDIw12GI67R0hVb8oDqMmdZyJznyU0j33EBWd_3ObhuAVrXfoUYaa0EU_aul7HjMqFE1VeD_gXHoLyukg8feVDKeCQCQSEI8rgvFsso0vPYTFK4xCaUTobjUul_Z6z_w_gEKSTUiTH-DBPkg0Zljzixi5o5ysuuEBCv2nBGXL8E7X9JQ5OoUsBVp8pDIUzQt0abNXdja28aoD3CwPfjHTXzIeO7tRUu03GLsd0d4H0xiqcxx6nLCqmx52XPtfbUe74uQ8AJJHhi4ypAcgFCUxWoShfpYqovlkwl23476iw0qOhkZv5B8EDCIHfG5oe5RjQMlKjHqKwRuM2WZKUmiZXuCFl-9RkW2PoWCb9xEctGEwYhP0AEcaaiWaZbceJmtsRz0KgPvmf_2ikCNpXcZdG7qivlEEEunAJxp3iiIU726WC-IXff2Bmtbff7K4KpbJ7N6Et88Erc9JoHImEPmtmvG9q3rtDPrTaTtVdkQnqIII2aUYyqPNwnkjsASMRMKgW3sz6bmrsXbwnsL5SUz5EbO7R_QGub-eF97SYoKbZIWuVvMzAFWNhXmop2gMDMEDPL7e-DceQ7wVnISUdYVxMocnwxGF5ZGEArfOuwRyDDrL60PoEKp8Eu9QQjrVzLO_CgdJzdwuTlj4Td5NxgytDzVnjJVJ5BYzvAF28PTTaa8KjkJilyzGek2cZ8m0lEv8BkJNcviEvjx7AtpNCQwLqtG-cmmsIDuGK4rCnepjATT3QwYjKoQPtHGN7x78SOcob1-lvB0lJDqdlNCN9BMqB1Zj8QpJs4eXOsju8UrxQslm00?></g></svg>