<?plantuml 1.2026.1beta2?><svg xmlns="http://www.w3.org/2000/svg" xmlns:xlink="http://www.w3.org/1999/xlink" contentStyleType="text/css" data-diagram-type="CLASS" height="1350px" preserveAspectRatio="none" style="width:1419px;height:1350px;background:#FFFFFF;" version="1.1" viewBox="0 0 1419 1350" width="1419px" zoomAndPan="magnify"><defs/><g><!--cluster api/routes--><g class="cluster" data-qualified-name="api.routes" data-source-line="3" id="ent0002"><path d="M671.5,235.48 L752.8906,235.48 A3.75,3.75 0 0 1 755.3906,237.98 L762.3906,257.7769 L1046.5,257.7769 A2.5,2.5 0 0 1 1049,260.2769 L1049,413.47 A2.5,2.5 0 0 1 1046.5,415.97 L671.5,415.97 A2.5,2.5 0 0 1 669,413.47 L669,237.98 A2.5,2.5 0 0 1 671.5,235.48" fill="none" style="stroke:#000000;stroke-width:1.5;"/><line style="stroke:#000000;stroke-width:1.5;" x1="669" x2="762.3906" y1="257.7769" y2="257.7769"/><text fill="#000000" font-family="sans-serif" font-size="14" font-weight="bold" lengthAdjust="spacing" textLength="80.3906" x="673" y="250.4751">api/routes</text></g><!--cluster api/controllers--><g class="cluster" data-qualified-name="api.controllers" data-source-line="13" id="ent0004"><path d="M1045.5,464.97 L1161.3096,464.97 A3.75,3.75 0 0 1 1163.8096,467.47 L1170.8096,487.2669 L1368.5,487.2669 A2.5,2.5 0 0 1 1371,489.7669 L1371,626.66 A2.5,2.5 0 0 1 1368.5,629.16 L1045.5,629.16 A2.5,2.5 0 0 1 1043,626.66 L1043,467.47 A2.5,2.5 0 0 1 1045.5,464.97" fill="none" style="stroke:#000000;stroke-width:1.5;"/><line style="stroke:#000000;stroke-width:1.5;" x1="1043" x2="1170.8096" y1="487.2669" y2="487.2669"/><text fill="#000000" font-family="sans-serif" font-size="14" font-weight="bold" lengthAdjust="spacing" textLength="114.8096" x="1047" y="479.9651">api/controllers</text></g><!--cluster domain--><g class="cluster" data-qualified-name="domain" data-source-line="22" id="ent0006"><path d="M923.5,678.16 L982.9404,678.16 A3.75,3.75 0 0 1 985.4404,680.66 L992.4404,700.4569 L1248.5,700.4569 A2.5,2.5 0 0 1 1251,702.9569 L1251,839.84 A2.5,2.5 0 0 1 1248.5,842.34 L923.5,842.34 A2.5,2.5 0 0 1 921,839.84 L921,680.66 A2.5,2.5 0 0 1 923.5,678.16" fill="none" style="stroke:#000000;stroke-width:1.5;"/><line style="stroke:#000000;stroke-width:1.5;" x1="921" x2="992.4404" y1="700.4569" y2="700.4569"/><text fill="#000000" font-family="sans-serif" font-size="14" font-weight="bold" lengthAdjust="spacing" textLength="58.4404" x="925" y="693.1551">domain</text></g><!--cluster data/models--><g class="cluster" data-qualified-name="data.models" data-source-line="31" id="ent0008"><path d="M720.5,891.34 L819.0762,891.34 A3.75,3.75 0 0 1 821.5762,893.84 L828.5762,913.6369 L1137.5,913.6369 A2.5,2.5 0 0 1 1140,916.1369 L1140,1341 A2.5,2.5 0 0 1 1137.5,1343.5 L720.5,1343.5 A2.5,2.5 0 0 1 718,1341 L718,893.84 A2.5,2.5 0 0 1 720.5,891.34" fill="none" style="stroke:#000000;stroke-width:1.5;"/><line style="stroke:#000000;stroke-width:1.5;" x1="718" x2="828.5762" y1="913.6369" y2="913.6369"/><text fill="#000000" font-family="sans-serif" font-size="14" font-weight="bold" lengthAdjust="spacing" textLength="97.5762" x="722" y="906.3351">data/models</text></g><!--cluster utils--><g class="cluster" data-qualified-name="utils" data-source-line="53" id="ent0011"><path d="M1166.5,1154.87 L1202.0898,1154.87 A3.75,3.75 0 0 1 1204.5898,1157.37 L1211.5898,1177.1669 L1409.5,1177.1669 A2.5,2.5 0 0 1 1412,1179.6669 L1412,1283.96 A2.5,2.5 0 0 1 1409.5,1286.46 L1166.5,1286.46 A2.5,2.5 0 0 1 1164,1283.96 L1164,1157.37 A2.5,2.5 0 0 1 1166.5,1154.87" fill="none" style="stroke:#000000;stroke-width:1.5;"/><line style="stroke:#000000;stroke-width:1.5;" x1="1164" x2="1211.5898" y1="1177.1669" y2="1177.1669"/><text fill="#000000" font-family="sans-serif" font-size="14" font-weight="bold" lengthAdjust="spacing" textLength="34.5898" x="1168" y="1169.8651">utils</text></g><!--cluster Root--><g class="cluster" data-qualified-name="Root" data-source-line="60" id="ent0013"><path d="M329.5,6 L367.209,6 A3.75,3.75 0 0 1 369.709,8.5 L376.709,28.2969 L642.5,28.2969 A2.5,2.5 0 0 1 645,30.7969 L645,183.98 A2.5,2.5 0 0 1 642.5,186.48 L329.5,186.48 A2.5,2.5 0 0 1 327,183.98 L327,8.5 A2.5,2.5 0 0 1 329.5,6" fill="none" style="stroke:#000000;stroke-width:1.5;"/><line style="stroke:#000000;stroke-width:1.5;" x1="327" x2="376.709" y1="28.2969" y2="28.2969"/><text fill="#000000" font-family="sans-serif" font-size="14" font-weight="bold" lengthAdjust="spacing" textLength="36.709" x="331" y="20.9951">Root</text></g><!--cluster data--><g class="cluster" data-qualified-name="data" data-source-line="70" id="ent0015"><path d="M8.5,907.64 L45.1084,907.64 A3.75,3.75 0 0 1 47.6084,910.14 L54.6084,929.9369 L321.5,929.9369 A2.5,2.5 0 0 1 324,932.4369 L324,1053.03 A2.5,2.5 0 0 1 321.5,1055.53 L8.5,1055.53 A2.5,2.5 0 0 1 6,1053.03 L6,910.14 A2.5,2.5 0 0 1 8.5,907.64" fill="none" style="stroke:#000000;stroke-width:1.5;"/><line style="stroke:#000000;stroke-width:1.5;" x1="6" x2="54.6084" y1="929.9369" y2="929.9369"/><text fill="#000000" font-family="sans-serif" font-size="14" font-weight="bold" lengthAdjust="spacing" textLength="35.6084" x="10" y="922.6351">data</text></g><!--class routes--><g class="entity" data-qualified-name="api.routes.routes" data-source-line="4" id="ent0003"><rect fill="#F1F1F1" height="129.4844" rx="2.5" ry="2.5" style="stroke:#181818;stroke-width:0.5;" width="348.458" x="684.77" y="270.48"/><ellipse cx="832.4536" cy="286.48" fill="#ADD1B2" rx="11" ry="11" style="stroke:#181818;stroke-width:1;"/><path d="M835.4223,292.1206 Q834.8442,292.4175 834.2036,292.5581 Q833.563,292.7144 832.8598,292.7144 Q830.3598,292.7144 829.0317,291.0738 Q827.7192,289.4175 827.7192,286.2925 Q827.7192,283.1675 829.0317,281.5113 Q830.3598,279.855 832.8598,279.855 Q833.563,279.855 834.2036,280.0113 Q834.8598,280.1675 835.4223,280.4644 L835.4223,283.1831 Q834.7973,282.605 834.2036,282.3394 Q833.6098,282.0581 832.9848,282.0581 Q831.6411,282.0581 830.9536,283.1363 Q830.2661,284.1988 830.2661,286.2925 Q830.2661,288.3863 830.9536,289.4644 Q831.6411,290.5269 832.9848,290.5269 Q833.6098,290.5269 834.2036,290.2613 Q834.7973,289.98 835.4223,289.4019 L835.4223,292.1206 Z " fill="#000000"/><text fill="#000000" font-family="sans-serif" font-size="14" lengthAdjust="spacing" textLength="44.5908" x="852.9536" y="291.3267">routes</text><line style="stroke:#181818;stroke-width:0.5;" x1="685.77" x2="1032.228" y1="302.48" y2="302.48"/><text fill="#000000" font-family="sans-serif" font-size="14" lengthAdjust="spacing" textLength="110.9746" x="690.77" y="319.4751">+router: Router</text><line style="stroke:#181818;stroke-width:0.5;" x1="685.77" x2="1032.228" y1="326.7769" y2="326.7769"/><text fill="#000000" font-family="sans-serif" font-size="14" lengthAdjust="spacing" textLength="169.5586" x="690.77" y="343.772">+get("/tasks"): listTasks</text><text fill="#000000" font-family="sans-serif" font-size="14" lengthAdjust="spacing" textLength="293.084" x="690.77" y="360.0689">+post("/tasks"): createTask (commented)</text><text fill="#000000" font-family="sans-serif" font-size="14" lengthAdjust="spacing" textLength="336.458" x="690.77" y="376.3657">+patch("/tasks/:id"): updateTasks (commented)</text><text fill="#000000" font-family="sans-serif" font-size="14" lengthAdjust="spacing" textLength="335.8154" x="690.77" y="392.6626">+delete("/tasks/:id"): deleteTasks (commented)</text></g><!--class taskController--><g class="entity" data-qualified-name="api.controllers.taskController" data-source-line="14" id="ent0005"><rect fill="#F1F1F1" height="113.1875" rx="2.5" ry="2.5" style="stroke:#181818;stroke-width:0.5;" width="296.0811" x="1058.96" y="499.97"/><ellipse cx="1153.4292" cy="515.97" fill="#ADD1B2" rx="11" ry="11" style="stroke:#181818;stroke-width:1;"/><path d="M1156.398,521.6106 Q1155.8199,521.9075 1155.1792,522.0481 Q1154.5386,522.2044 1153.8355,522.2044 Q1151.3355,522.2044 1150.0074,520.5638 Q1148.6949,518.9075 1148.6949,515.7825 Q1148.6949,512.6575 1150.0074,511.0013 Q1151.3355,509.345 1153.8355,509.345 Q1154.5386,509.345 1155.1792,509.5013 Q1155.8355,509.6575 1156.398,509.9544 L1156.398,512.6731 Q1155.773,512.095 1155.1792,511.8294 Q1154.5855,511.5481 1153.9605,511.5481 Q1152.6167,511.5481 1151.9292,512.6263 Q1151.2417,513.6888 1151.2417,515.7825 Q1151.2417,517.8763 1151.9292,518.9544 Q1152.6167,520.0169 1153.9605,520.0169 Q1154.5855,520.0169 1155.1792,519.7513 Q1155.773,519.47 1156.398,518.8919 L1156.398,521.6106 Z " fill="#000000"/><text fill="#000000" font-family="sans-serif" font-size="14" lengthAdjust="spacing" textLength="98.6426" x="1173.9292" y="520.8167">taskController</text><line style="stroke:#181818;stroke-width:0.5;" x1="1059.96" x2="1354.0411" y1="531.97" y2="531.97"/><line style="stroke:#181818;stroke-width:0.5;" x1="1059.96" x2="1354.0411" y1="539.97" y2="539.97"/><text fill="#000000" font-family="sans-serif" font-size="14" lengthAdjust="spacing" textLength="255.3154" x="1064.96" y="556.9651">+listTasks(req, res): Promise&lt;void&gt;</text><text fill="#000000" font-family="sans-serif" font-size="14" lengthAdjust="spacing" textLength="272.207" x="1064.96" y="573.262">+createTask(req, res): Promise&lt;void&gt;</text><text fill="#000000" font-family="sans-serif" font-size="14" lengthAdjust="spacing" textLength="284.0811" x="1064.96" y="589.5589">+updateTasks(req, res): Promise&lt;void&gt;</text><text fill="#000000" font-family="sans-serif" font-size="14" lengthAdjust="spacing" textLength="278.8584" x="1064.96" y="605.8557">+deleteTasks(req, res): Promise&lt;void&gt;</text></g><!--class taskService--><g class="entity" data-qualified-name="domain.taskService" data-source-line="23" id="ent0007"><rect fill="#F1F1F1" height="113.1875" rx="2.5" ry="2.5" style="stroke:#181818;stroke-width:0.5;" width="298.3779" x="936.81" y="713.16"/><ellipse cx="1041.1435" cy="729.16" fill="#ADD1B2" rx="11" ry="11" style="stroke:#181818;stroke-width:1;"/><path d="M1044.1122,734.8006 Q1043.5341,735.0975 1042.8935,735.2381 Q1042.2529,735.3944 1041.5497,735.3944 Q1039.0497,735.3944 1037.7216,733.7538 Q1036.4091,732.0975 1036.4091,728.9725 Q1036.4091,725.8475 1037.7216,724.1913 Q1039.0497,722.535 1041.5497,722.535 Q1042.2529,722.535 1042.8935,722.6913 Q1043.5497,722.8475 1044.1122,723.1444 L1044.1122,725.8631 Q1043.4872,725.285 1042.8935,725.0194 Q1042.2997,724.7381 1041.6747,724.7381 Q1040.331,724.7381 1039.6435,725.8163 Q1038.956,726.8788 1038.956,728.9725 Q1038.956,731.0663 1039.6435,732.1444 Q1040.331,733.2069 1041.6747,733.2069 Q1042.2997,733.2069 1042.8935,732.9413 Q1043.4872,732.66 1044.1122,732.0819 L1044.1122,734.8006 Z " fill="#000000"/><text fill="#000000" font-family="sans-serif" font-size="14" lengthAdjust="spacing" textLength="81.2109" x="1061.6435" y="734.0067">taskService</text><line style="stroke:#181818;stroke-width:0.5;" x1="937.81" x2="1234.1879" y1="745.16" y2="745.16"/><line style="stroke:#181818;stroke-width:0.5;" x1="937.81" x2="1234.1879" y1="753.16" y2="753.16"/><text fill="#000000" font-family="sans-serif" font-size="14" lengthAdjust="spacing" textLength="215.3252" x="942.81" y="770.1551">+listTasks(): Promise&lt;Task[]&gt;</text><text fill="#000000" font-family="sans-serif" font-size="14" lengthAdjust="spacing" textLength="252.8271" x="942.81" y="786.452">+createTask(data): Promise&lt;Task&gt;</text><text fill="#000000" font-family="sans-serif" font-size="14" lengthAdjust="spacing" textLength="286.3779" x="942.81" y="802.7489">+updateTasks(id, data): Promise&lt;Task&gt;</text><text fill="#000000" font-family="sans-serif" font-size="14" lengthAdjust="spacing" textLength="237.8154" x="942.81" y="819.0457">+deleteTasks(id): Promise&lt;void&gt;</text></g><!--class tasksDao--><g class="entity" data-qualified-name="data.models.tasksDao" data-source-line="32" id="ent0009"><rect fill="#F1F1F1" height="129.4844" rx="2.5" ry="2.5" style="stroke:#181818;stroke-width:0.5;" width="390.6221" x="733.69" y="926.34"/><ellipse cx="892.4068" cy="942.34" fill="#ADD1B2" rx="11" ry="11" style="stroke:#181818;stroke-width:1;"/><path d="M895.3755,947.9806 Q894.7974,948.2775 894.1568,948.4181 Q893.5162,948.5744 892.813,948.5744 Q890.313,948.5744 888.9849,946.9337 Q887.6724,945.2775 887.6724,942.1525 Q887.6724,939.0275 888.9849,937.3712 Q890.313,935.715 892.813,935.715 Q893.5162,935.715 894.1568,935.8712 Q894.813,936.0275 895.3755,936.3244 L895.3755,939.0431 Q894.7505,938.465 894.1568,938.1994 Q893.563,937.9181 892.938,937.9181 Q891.5943,937.9181 890.9068,938.9962 Q890.2193,940.0587 890.2193,942.1525 Q890.2193,944.2462 890.9068,945.3244 Q891.5943,946.3869 892.938,946.3869 Q893.563,946.3869 894.1568,946.1212 Q894.7505,945.84 895.3755,945.2619 L895.3755,947.9806 Z " fill="#000000"/><text fill="#000000" font-family="sans-serif" font-size="14" lengthAdjust="spacing" textLength="64.6885" x="912.9068" y="947.1867">tasksDao</text><line style="stroke:#181818;stroke-width:0.5;" x1="734.69" x2="1123.3121" y1="958.34" y2="958.34"/><line style="stroke:#181818;stroke-width:0.5;" x1="734.69" x2="1123.3121" y1="966.34" y2="966.34"/><text fill="#000000" font-family="sans-serif" font-size="14" lengthAdjust="spacing" textLength="305.4844" x="739.69" y="983.3351">+retrieveTaskById(id): Promise&lt;Task|null&gt;</text><text fill="#000000" font-family="sans-serif" font-size="14" lengthAdjust="spacing" textLength="284.1904" x="739.69" y="999.632">+createTask(taskData): Promise&lt;Task&gt;</text><text fill="#000000" font-family="sans-serif" font-size="14" lengthAdjust="spacing" textLength="334.4141" x="739.69" y="1015.9289">+updateTask(id, updates): Promise&lt;Task|null&gt;</text><text fill="#000000" font-family="sans-serif" font-size="14" lengthAdjust="spacing" textLength="256.8672" x="739.69" y="1032.2257">+deleteTask(id): Promise&lt;boolean&gt;</text><text fill="#000000" font-family="sans-serif" font-size="14" lengthAdjust="spacing" textLength="378.6221" x="739.69" y="1048.5226">-Note: retrieveAllTasks() missing but called by service</text></g><!--class Task--><g class="entity" data-qualified-name="data.models.Task" data-source-line="40" id="ent0010"><rect fill="#F1F1F1" height="194.6719" rx="2.5" ry="2.5" style="stroke:#181818;stroke-width:0.5;" width="232.2949" x="733.85" y="1132.83"/><ellipse cx="829.4813" cy="1148.83" fill="#ADD1B2" rx="11" ry="11" style="stroke:#181818;stroke-width:1;"/><path d="M832.4501,1154.4706 Q831.872,1154.7675 831.2313,1154.9081 Q830.5907,1155.0644 829.8876,1155.0644 Q827.3876,1155.0644 826.0595,1153.4238 Q824.747,1151.7675 824.747,1148.6425 Q824.747,1145.5175 826.0595,1143.8613 Q827.3876,1142.205 829.8876,1142.205 Q830.5907,1142.205 831.2313,1142.3613 Q831.8876,1142.5175 832.4501,1142.8144 L832.4501,1145.5331 Q831.8251,1144.955 831.2313,1144.6894 Q830.6376,1144.4081 830.0126,1144.4081 Q828.6688,1144.4081 827.9813,1145.4863 Q827.2938,1146.5488 827.2938,1148.6425 Q827.2938,1150.7363 827.9813,1151.8144 Q828.6688,1152.8769 830.0126,1152.8769 Q830.6376,1152.8769 831.2313,1152.6113 Q831.8251,1152.33 832.4501,1151.7519 L832.4501,1154.4706 Z " fill="#000000"/><text fill="#000000" font-family="sans-serif" font-size="14" lengthAdjust="spacing" textLength="32.5322" x="849.9813" y="1153.6767">Task</text><line style="stroke:#181818;stroke-width:0.5;" x1="734.85" x2="965.1449" y1="1164.83" y2="1164.83"/><text fill="#000000" font-family="sans-serif" font-size="14" lengthAdjust="spacing" textLength="95.0947" x="739.85" y="1181.8251">+id: INTEGER</text><text fill="#000000" font-family="sans-serif" font-size="14" lengthAdjust="spacing" textLength="100.8848" x="739.85" y="1198.122">+title: STRING</text><text fill="#000000" font-family="sans-serif" font-size="14" lengthAdjust="spacing" textLength="134.2783" x="739.85" y="1214.4189">+description: TEXT</text><text fill="#000000" font-family="sans-serif" font-size="14" lengthAdjust="spacing" textLength="163.5156" x="739.85" y="1230.7157">+completed: BOOLEAN</text><text fill="#000000" font-family="sans-serif" font-size="14" lengthAdjust="spacing" textLength="127.3535" x="739.85" y="1247.0126">+createdAt: DATE</text><text fill="#000000" font-family="sans-serif" font-size="14" lengthAdjust="spacing" textLength="131.9336" x="739.85" y="1263.3095">+updatedAt: DATE</text><line style="stroke:#181818;stroke-width:0.5;" x1="734.85" x2="965.1449" y1="1270.6113" y2="1270.6113"/><text fill="#000000" font-family="sans-serif" font-size="14" lengthAdjust="spacing" textLength="217.8066" x="739.85" y="1287.6064">+findByPk(id): Promise&lt;Task&gt;</text><text fill="#000000" font-family="sans-serif" font-size="14" lengthAdjust="spacing" textLength="220.2949" x="739.85" y="1303.9032">+create(data): Promise&lt;Task&gt;</text><text fill="#000000" font-family="sans-serif" font-size="14" lengthAdjust="spacing" textLength="198.8711" x="739.85" y="1320.2001">+findAll(): Promise&lt;Task[]&gt;</text></g><!--class logger--><g class="entity" data-qualified-name="utils.logger" data-source-line="54" id="ent0012"><rect fill="#F1F1F1" height="80.5938" rx="2.5" ry="2.5" style="stroke:#181818;stroke-width:0.5;" width="216.0322" x="1179.98" y="1189.87"/><ellipse cx="1261.4473" cy="1205.87" fill="#ADD1B2" rx="11" ry="11" style="stroke:#181818;stroke-width:1;"/><path d="M1264.416,1211.5106 Q1263.8379,1211.8075 1263.1973,1211.9481 Q1262.5567,1212.1044 1261.8535,1212.1044 Q1259.3535,1212.1044 1258.0254,1210.4638 Q1256.7129,1208.8075 1256.7129,1205.6825 Q1256.7129,1202.5575 1258.0254,1200.9013 Q1259.3535,1199.245 1261.8535,1199.245 Q1262.5567,1199.245 1263.1973,1199.4013 Q1263.8535,1199.5575 1264.416,1199.8544 L1264.416,1202.5731 Q1263.791,1201.995 1263.1973,1201.7294 Q1262.6035,1201.4481 1261.9785,1201.4481 Q1260.6348,1201.4481 1259.9473,1202.5263 Q1259.2598,1203.5888 1259.2598,1205.6825 Q1259.2598,1207.7763 1259.9473,1208.8544 Q1260.6348,1209.9169 1261.9785,1209.9169 Q1262.6035,1209.9169 1263.1973,1209.6513 Q1263.791,1209.37 1264.416,1208.7919 L1264.416,1211.5106 Z " fill="#000000"/><text fill="#000000" font-family="sans-serif" font-size="14" lengthAdjust="spacing" textLength="44.5977" x="1281.9473" y="1210.7167">logger</text><line style="stroke:#181818;stroke-width:0.5;" x1="1180.98" x2="1395.0122" y1="1221.87" y2="1221.87"/><line style="stroke:#181818;stroke-width:0.5;" x1="1180.98" x2="1395.0122" y1="1229.87" y2="1229.87"/><text fill="#000000" font-family="sans-serif" font-size="14" lengthAdjust="spacing" textLength="195.8428" x="1185.98" y="1246.8651">+info(message, meta): void</text><text fill="#000000" font-family="sans-serif" font-size="14" lengthAdjust="spacing" textLength="204.0322" x="1185.98" y="1263.162">+error(message, meta): void</text></g><!--class index--><g class="entity" data-qualified-name="Root.index" data-source-line="61" id="ent0014"><rect fill="#F1F1F1" height="129.4844" rx="2.5" ry="2.5" style="stroke:#181818;stroke-width:0.5;" width="285.5537" x="343.22" y="41"/><ellipse cx="462.4729" cy="57" fill="#ADD1B2" rx="11" ry="11" style="stroke:#181818;stroke-width:1;"/><path d="M465.4417,62.6406 Q464.8636,62.9375 464.2229,63.0781 Q463.5823,63.2344 462.8792,63.2344 Q460.3792,63.2344 459.0511,61.5938 Q457.7386,59.9375 457.7386,56.8125 Q457.7386,53.6875 459.0511,52.0313 Q460.3792,50.375 462.8792,50.375 Q463.5823,50.375 464.2229,50.5313 Q464.8792,50.6875 465.4417,50.9844 L465.4417,53.7031 Q464.8167,53.125 464.2229,52.8594 Q463.6292,52.5781 463.0042,52.5781 Q461.6604,52.5781 460.9729,53.6563 Q460.2854,54.7188 460.2854,56.8125 Q460.2854,58.9063 460.9729,59.9844 Q461.6604,61.0469 463.0042,61.0469 Q463.6292,61.0469 464.2229,60.7813 Q464.8167,60.5 465.4417,59.9219 L465.4417,62.6406 Z " fill="#000000"/><text fill="#000000" font-family="sans-serif" font-size="14" lengthAdjust="spacing" textLength="38.5479" x="482.9729" y="61.8467">index</text><line style="stroke:#181818;stroke-width:0.5;" x1="344.22" x2="627.7737" y1="73" y2="73"/><text fill="#000000" font-family="sans-serif" font-size="14" lengthAdjust="spacing" textLength="102.2246" x="349.22" y="89.9951">+app: Express</text><text fill="#000000" font-family="sans-serif" font-size="14" lengthAdjust="spacing" textLength="113.2783" x="349.22" y="106.292">+PORT: number</text><line style="stroke:#181818;stroke-width:0.5;" x1="344.22" x2="627.7737" y1="113.5938" y2="113.5938"/><text fill="#000000" font-family="sans-serif" font-size="14" lengthAdjust="spacing" textLength="226.8096" x="349.22" y="130.5889">+initializeApp(): Promise&lt;void&gt;</text><text fill="#000000" font-family="sans-serif" font-size="14" lengthAdjust="spacing" textLength="273.5537" x="349.22" y="146.8857">+testConnection(): Promise&lt;boolean&gt;</text><text fill="#000000" font-family="sans-serif" font-size="14" lengthAdjust="spacing" textLength="99.4971" x="349.22" y="163.1826">+listen(): void</text></g><!--class database--><g class="entity" data-qualified-name="data.database" data-source-line="71" id="ent0016"><rect fill="#F1F1F1" height="96.8906" rx="2.5" ry="2.5" style="stroke:#181818;stroke-width:0.5;" width="285.5537" x="22.22" y="942.64"/><ellipse cx="128.2932" cy="958.64" fill="#ADD1B2" rx="11" ry="11" style="stroke:#181818;stroke-width:1;"/><path d="M131.262,964.2806 Q130.6839,964.5775 130.0432,964.7181 Q129.4026,964.8744 128.6995,964.8744 Q126.1995,964.8744 124.8714,963.2338 Q123.5589,961.5775 123.5589,958.4525 Q123.5589,955.3275 124.8714,953.6713 Q126.1995,952.015 128.6995,952.015 Q129.4026,952.015 130.0432,952.1713 Q130.6995,952.3275 131.262,952.6244 L131.262,955.3431 Q130.637,954.765 130.0432,954.4994 Q129.4495,954.2181 128.8245,954.2181 Q127.4807,954.2181 126.7932,955.2963 Q126.1057,956.3588 126.1057,958.4525 Q126.1057,960.5463 126.7932,961.6244 Q127.4807,962.6869 128.8245,962.6869 Q129.4495,962.6869 130.0432,962.4213 Q130.637,962.14 131.262,961.5619 L131.262,964.2806 Z " fill="#000000"/><text fill="#000000" font-family="sans-serif" font-size="14" lengthAdjust="spacing" textLength="64.9072" x="148.7932" y="963.4867">database</text><line style="stroke:#181818;stroke-width:0.5;" x1="23.22" x2="306.7737" y1="974.64" y2="974.64"/><line style="stroke:#181818;stroke-width:0.5;" x1="23.22" x2="306.7737" y1="982.64" y2="982.64"/><text fill="#000000" font-family="sans-serif" font-size="14" lengthAdjust="spacing" textLength="190.0391" x="28.22" y="999.6351">+getSequelize(): Sequelize</text><text fill="#000000" font-family="sans-serif" font-size="14" lengthAdjust="spacing" textLength="273.5537" x="28.22" y="1015.932">+testConnection(): Promise&lt;boolean&gt;</text><text fill="#000000" font-family="sans-serif" font-size="14" lengthAdjust="spacing" textLength="241.3906" x="28.22" y="1032.2289">-sequelize.sync(): Error (poisoned)</text></g><g class="entity" data-qualified-name="GMN27" data-source-line="90" id="ent0028"><path d="M739.23,85.61 L739.23,125.8756 A0,0 0 0 0 739.23,125.8756 L855,125.8756 L859,270.36 L863,125.8756 L978.7608,125.8756 A0,0 0 0 0 978.7608,125.8756 L978.7608,95.61 L968.7608,85.61 L739.23,85.61 A0,0 0 0 0 739.23,85.61" fill="#FEFFDD" style="stroke:#181818;stroke-width:0.5;"/><path d="M968.7608,85.61 L968.7608,95.61 L978.7608,95.61 L968.7608,85.61" fill="#FEFFDD" style="stroke:#181818;stroke-width:0.5;"/><text fill="#000000" font-family="sans-serif" font-size="13" lengthAdjust="spacing" textLength="148.0464" x="745.23" y="102.6769">HTTP Route definitions</text><text fill="#000000" font-family="sans-serif" font-size="13" lengthAdjust="spacing" textLength="218.5308" x="745.23" y="117.8097">Maps URLs to controller functions</text></g><g class="entity" data-qualified-name="GMN30" data-source-line="95" id="ent0031"><path d="M1105.83,307.53 L1105.83,362.9284 A0,0 0 0 0 1105.83,362.9284 L1203,362.9284 L1207,499.79 L1211,362.9284 L1308.1635,362.9284 A0,0 0 0 0 1308.1635,362.9284 L1308.1635,317.53 L1298.1635,307.53 L1105.83,307.53 A0,0 0 0 0 1105.83,307.53" fill="#FEFFDD" style="stroke:#181818;stroke-width:0.5;"/><path d="M1298.1635,307.53 L1298.1635,317.53 L1308.1635,317.53 L1298.1635,307.53" fill="#FEFFDD" style="stroke:#181818;stroke-width:0.5;"/><text fill="#000000" font-family="sans-serif" font-size="13" lengthAdjust="spacing" textLength="181.3335" x="1111.83" y="324.5969">Request/Response handling</text><text fill="#000000" font-family="sans-serif" font-size="13" lengthAdjust="spacing" textLength="119.8311" x="1111.83" y="339.7297">HTTP status codes</text><text fill="#000000" font-family="sans-serif" font-size="13" lengthAdjust="spacing" textLength="92.7456" x="1111.83" y="354.8625">Error handling</text></g><g class="entity" data-qualified-name="GMN33" data-source-line="101" id="ent0034"><path d="M874.11,528.86 L874.11,584.2584 A0,0 0 0 0 874.11,584.2584 L962.63,584.2584 L1049.68,712.76 L970.63,584.2584 L1023.8913,584.2584 A0,0 0 0 0 1023.8913,584.2584 L1023.8913,538.86 L1013.8913,528.86 L874.11,528.86 A0,0 0 0 0 874.11,528.86" fill="#FEFFDD" style="stroke:#181818;stroke-width:0.5;"/><path d="M1013.8913,528.86 L1013.8913,538.86 L1023.8913,538.86 L1013.8913,528.86" fill="#FEFFDD" style="stroke:#181818;stroke-width:0.5;"/><text fill="#000000" font-family="sans-serif" font-size="13" lengthAdjust="spacing" textLength="128.7813" x="880.11" y="545.9269">Business logic layer</text><text fill="#000000" font-family="sans-serif" font-size="13" lengthAdjust="spacing" textLength="86.5439" x="880.11" y="561.0597">Domain rules</text><text fill="#000000" font-family="sans-serif" font-size="13" lengthAdjust="spacing" textLength="89.0449" x="880.11" y="576.1925">Orchestration</text></g><g class="entity" data-qualified-name="GMN36" data-source-line="107" id="ent0037"><path d="M659.86,734.48 L659.86,805.0113 A0,0 0 0 0 659.86,805.0113 L800.45,805.0113 L885.69,925.89 L808.45,805.0113 L902.1329,805.0113 A0,0 0 0 0 902.1329,805.0113 L902.1329,744.48 L892.1329,734.48 L659.86,734.48 A0,0 0 0 0 659.86,734.48" fill="#FEFFDD" style="stroke:#181818;stroke-width:0.5;"/><path d="M892.1329,734.48 L892.1329,744.48 L902.1329,744.48 L892.1329,734.48" fill="#FEFFDD" style="stroke:#181818;stroke-width:0.5;"/><text fill="#000000" font-family="sans-serif" font-size="13" lengthAdjust="spacing" textLength="126.3755" x="665.86" y="751.5469">Data Access Object</text><text fill="#000000" font-family="sans-serif" font-size="13" lengthAdjust="spacing" textLength="174.1226" x="665.86" y="766.6797">Abstracts data persistence</text><text fill="#000000" font-family="sans-serif" font-size="13" lengthAdjust="spacing" textLength="132.5898" x="665.86" y="781.8125">Uses Sequelize ORM</text><text fill="#000000" font-family="sans-serif" font-size="13" lengthAdjust="spacing" textLength="221.2729" x="665.86" y="796.9453">Missing retrieveAllTasks() method</text></g><g class="entity" data-qualified-name="GMN39" data-source-line="114" id="ent0040"><path d="M343.14,963.39 L343.14,1018.7884 A0,0 0 0 0 343.14,1018.7884 L554.74,1018.7884 L733.5,1145.21 L562.74,1018.7884 L698.8646,1018.7884 A0,0 0 0 0 698.8646,1018.7884 L698.8646,973.39 L688.8646,963.39 L343.14,963.39 A0,0 0 0 0 343.14,963.39" fill="#FEFFDD" style="stroke:#181818;stroke-width:0.5;"/><path d="M688.8646,963.39 L688.8646,973.39 L698.8646,973.39 L688.8646,963.39" fill="#FEFFDD" style="stroke:#181818;stroke-width:0.5;"/><text fill="#000000" font-family="sans-serif" font-size="13" lengthAdjust="spacing" textLength="107.396" x="349.14" y="980.4569">Sequelize model</text><text fill="#000000" font-family="sans-serif" font-size="13" lengthAdjust="spacing" textLength="205.8354" x="349.14" y="995.5897">Maps to PostgreSQL tasks table</text><text fill="#000000" font-family="sans-serif" font-size="13" lengthAdjust="spacing" textLength="334.7246" x="349.14" y="1010.7225">Fields: id, title, description, completed, timestamps</text></g><g class="entity" data-qualified-name="GMN42" data-source-line="120" id="ent0043"><path d="M55.56,734.48 L55.56,805.0113 A0,0 0 0 0 55.56,805.0113 L161,805.0113 L165,942.44 L169,805.0113 L274.4418,805.0113 A0,0 0 0 0 274.4418,805.0113 L274.4418,744.48 L264.4418,734.48 L55.56,734.48 A0,0 0 0 0 55.56,734.48" fill="#FEFFDD" style="stroke:#181818;stroke-width:0.5;"/><path d="M264.4418,734.48 L264.4418,744.48 L274.4418,744.48 L264.4418,734.48" fill="#FEFFDD" style="stroke:#181818;stroke-width:0.5;"/><text fill="#000000" font-family="sans-serif" font-size="13" lengthAdjust="spacing" textLength="153.1499" x="61.56" y="751.5469">Sequelize configuration</text><text fill="#000000" font-family="sans-serif" font-size="13" lengthAdjust="spacing" textLength="182.0127" x="61.56" y="766.6797">Connection pooling enabled</text><text fill="#000000" font-family="sans-serif" font-size="13" lengthAdjust="spacing" textLength="157.498" x="61.56" y="781.8125">sync() method poisoned</text><text fill="#000000" font-family="sans-serif" font-size="13" lengthAdjust="spacing" textLength="197.8818" x="61.56" y="796.9453">Migration-only schema control</text></g><!--link index to routes--><g class="link" data-entity-1="ent0014" data-entity-2="ent0003" data-link-type="dependency" data-source-line="78" id="lnk17"><path codeLine="78" d="M590.89,170.71 C641.85,201.79 697.8174,235.926 748.7974,267.016" fill="none" id="index-to-routes" style="stroke:#181818;stroke-width:1;"/><polygon fill="#181818" points="753.92,270.14,748.3188,262.039,749.6512,267.5367,744.1535,268.8691,753.92,270.14" style="stroke:#181818;stroke-width:1;"/><text fill="#000000" font-family="sans-serif" font-size="13" lengthAdjust="spacing" textLength="29.7832" x="662" y="215.5469">uses</text></g><!--link index to database--><g class="link" data-entity-1="ent0014" data-entity-2="ent0016" data-link-type="dependency" data-source-line="79" id="lnk18"><path codeLine="79" d="M450.89,170.89 C429.79,215.38 407,276.74 407,334.23 C407,334.23 407,334.23 407,770.75 C407,816.89 314.1227,889.5941 242.8727,938.9341" fill="none" id="index-to-database" style="stroke:#181818;stroke-width:1;"/><polygon fill="#181818" points="237.94,942.35,247.6163,940.5147,242.0506,939.5034,243.0618,933.9377,237.94,942.35" style="stroke:#181818;stroke-width:1;"/><text fill="#000000" font-family="sans-serif" font-size="13" lengthAdjust="spacing" textLength="75.7783" x="408" y="561.1269">connects to</text></g><!--link routes to taskController--><g class="link" data-entity-1="ent0003" data-entity-2="ent0005" data-link-type="dependency" data-source-line="80" id="lnk19"><path codeLine="80" d="M960.59,400.26 C1010.55,431.74 1065.1138,466.1412 1113.2138,496.4512" fill="none" id="routes-to-taskController" style="stroke:#181818;stroke-width:1;"/><polygon fill="#181818" points="1118.29,499.65,1112.8082,491.4677,1114.0598,496.9844,1108.5432,498.236,1118.29,499.65" style="stroke:#181818;stroke-width:1;"/><text fill="#000000" font-family="sans-serif" font-size="13" lengthAdjust="spacing" textLength="58.5889" x="1034" y="445.0369">routes to</text></g><!--link taskController to taskService--><g class="link" data-entity-1="ent0005" data-entity-2="ent0007" data-link-type="dependency" data-source-line="81" id="lnk20"><path codeLine="81" d="M1174.89,613.6 C1157.32,644.27 1138.5927,676.9539 1121.0327,707.6039" fill="none" id="taskController-to-taskService" style="stroke:#181818;stroke-width:1;"/><polygon fill="#181818" points="1118.05,712.81,1125.9948,706.9893,1120.5356,708.4716,1119.0533,703.0124,1118.05,712.81" style="stroke:#181818;stroke-width:1;"/><text fill="#000000" font-family="sans-serif" font-size="13" lengthAdjust="spacing" textLength="29.1104" x="1154" y="658.2269">calls</text></g><!--link taskController to logger--><g class="link" data-entity-1="ent0005" data-entity-2="ent0012" data-link-type="dependency" data-source-line="82" id="lnk21"><path codeLine="82" d="M1232.75,613.49 C1239.86,631.25 1246.78,651.21 1251,670.16 C1293.59,861.21 1292.2484,1091.3524 1289.6584,1183.6124" fill="none" id="taskController-to-logger" style="stroke:#181818;stroke-width:1;"/><polygon fill="#181818" points="1289.49,1189.61,1293.741,1180.7258,1289.6303,1184.612,1285.7441,1180.5013,1289.49,1189.61" style="stroke:#181818;stroke-width:1;"/><text fill="#000000" font-family="sans-serif" font-size="13" lengthAdjust="spacing" textLength="29.7832" x="1281" y="871.4069">uses</text></g><!--link taskService to tasksDao--><g class="link" data-entity-1="ent0007" data-entity-2="ent0009" data-link-type="dependency" data-source-line="83" id="lnk22"><path codeLine="83" d="M1045.98,826.67 C1024.26,857 1000.8215,889.7405 978.2815,921.2405" fill="none" id="taskService-to-tasksDao" style="stroke:#181818;stroke-width:1;"/><polygon fill="#181818" points="974.79,926.12,983.2803,921.1285,977.6996,922.0538,976.7743,916.4731,974.79,926.12" style="stroke:#181818;stroke-width:1;"/><text fill="#000000" font-family="sans-serif" font-size="13" lengthAdjust="spacing" textLength="29.1104" x="1022" y="871.4069">calls</text></g><!--link taskService to logger--><g class="link" data-entity-1="ent0007" data-entity-2="ent0012" data-link-type="dependency" data-source-line="84" id="lnk23"><path codeLine="84" d="M1113.39,826.65 C1122.07,844.67 1131.58,864.78 1140,883.34 C1189.9,993.37 1242.6756,1119.426 1269.3856,1183.966" fill="none" id="taskService-to-logger" style="stroke:#181818;stroke-width:1;"/><polygon fill="#181818" points="1271.68,1189.51,1271.9344,1179.6644,1269.768,1184.89,1264.5424,1182.7236,1271.68,1189.51" style="stroke:#181818;stroke-width:1;"/><text fill="#000000" font-family="sans-serif" font-size="13" lengthAdjust="spacing" textLength="29.7832" x="1218" y="995.6569">uses</text></g><!--link tasksDao to Task--><g class="link" data-entity-1="ent0009" data-entity-2="ent0010" data-link-type="dependency" data-source-line="85" id="lnk24"><path codeLine="85" d="M907.62,1056.24 C899.81,1079.69 892.6887,1101.0783 884.1287,1126.7383" fill="none" id="tasksDao-to-Task" style="stroke:#181818;stroke-width:1;"/><polygon fill="#181818" points="882.23,1132.43,888.8725,1125.1583,883.8122,1127.687,881.2836,1122.6267,882.23,1132.43" style="stroke:#181818;stroke-width:1;"/><text fill="#000000" font-family="sans-serif" font-size="13" lengthAdjust="spacing" textLength="141.3115" x="897" y="1098.8969">uses Sequelize model</text></g><!--link tasksDao to logger--><g class="link" data-entity-1="ent0009" data-entity-2="ent0012" data-link-type="dependency" data-source-line="86" id="lnk25"><path codeLine="86" d="M1026.15,1056.24 C1090.52,1098.75 1167.9333,1149.8735 1222.9433,1186.2035" fill="none" id="tasksDao-to-logger" style="stroke:#181818;stroke-width:1;"/><polygon fill="#181818" points="1227.95,1189.51,1222.6443,1181.2124,1223.7778,1186.7546,1218.2356,1187.888,1227.95,1189.51" style="stroke:#181818;stroke-width:1;"/><text fill="#000000" font-family="sans-serif" font-size="13" lengthAdjust="spacing" textLength="29.7832" x="1088" y="1098.8969">uses</text></g><!--link database to Task--><g class="link" data-entity-1="ent0016" data-entity-2="ent0010" data-link-type="dependency" data-source-line="87" id="lnk26"><path codeLine="87" d="M268.22,1039.92 C287.28,1048.18 307.12,1056.39 326,1063.53 C463.97,1115.76 620.6777,1163.6578 727.7077,1194.7178" fill="none" id="database-to-Task" style="stroke:#181818;stroke-width:1;"/><polygon fill="#181818" points="733.47,1196.39,725.9414,1190.0402,728.6681,1194.9965,723.7118,1197.7232,733.47,1196.39" style="stroke:#181818;stroke-width:1;"/><text fill="#000000" font-family="sans-serif" font-size="13" lengthAdjust="spacing" textLength="182" x="425" y="1098.8969">provides Sequelize instance</text></g><?plantuml-src bLPDRnit4BthLmnyKb0fwdbH191hDJNWMAga00MA7AZbI6RD9HcIQqHjyzyxm_tGhhoIsukD9TyyldcS6IeyA-E45mNaMeGmZz6hNHdnFhTce_v2-74qSY9_5WU46-7Kp5lQ3JVmzmYg4AXMqWB03zMdps2T_jUB1upZcraKuJdSlCj0gn2t_55lEnjw-xb74P4HCCvjKQ29ADyrO17pfmOzovJaYDB9EY8CX4ZK6F4yfbeTYla--dwMDjaHlTKQVIztvlkvtMezQFCRU_mw0O-1ZbjvMwY0FxrO9J_Km5EYRo4x2Ru5xUHr3TfFKjf2A7EUsmRzYyfn8B4E8I_yyMKW9L8ipd13wIWvWIlGRZfAlfq8CSqAIr6lRYhS2NkgKwHInvT4V7kybtrkNlt7b5eFfCLKT_ybjPHPzHckSPyox8lOMQjHc0esXKSRCMjrpxMkRm8879Gv03Kkv88gKSBk2A6wksGGG6j4wgh612Kpk7_SBZukrlLAL57JAPlj-lxnOwilv5wvgAp9OBluVTjuOWl7oedaThbyMCmVUsR9USpWRhvTz8mvNzqh8s-Fg-VN_lUjlrPDp45-31TblppAgFg5eUtXq6bTPVPsN608X9v0WUbChhHw7xst_XAWVzJQsjWzYKJYj_OWuLm6Ys-EchCPWwlbUfk1AOjTEpYLKL49JPDuxjpuGiDJUKMQGWPplgBnfGggsXSJO50mEzmLpDyx4KxjJsDyWrzBP3tCqdxyFo5Jgiqwy7qucfo12_OLniwgO4rd2bUcJQSVcdU6Pdt0q5blLTAxKPrDtMv7DPmHPrCwQwW8TRRLe9kvbwL-2aEmkcvgETsWXYIDcov35_0wFC5vAtLejN5o6D98wmFx7AqF7GxdxOkIFHvbGXI6viB8q3mX3npOVUq8cVxhThkgtcvg-tqgFsjuuvDm0Jwl7zWsE3s7i2zDNc7GI63EFdFVEY9QivGGPsiCZi8GdeIHckPNSphfYsMWCsHIL5L62xfyogOTUBSbpKEicblbeCKndNoNtZZmfKx4Ivy_aH0lMFuLNlQReybVcESvyovtVrATqU9ynmHSScm_EFfza7eioVZSly7b-XFxM0_heJcEySdA2qeOHE7d1L5V3Dt9Ydv47JnkVdkeLDFVdMOPloZKCcJ0hr4QxvFkH9-SnZXlqsIBed2NRhCfifuIgeQzEfIraG2d4K2_x2pV6g1XCJnogeQlSuMctvCnXufXQescvuikfn1DfRLo_WK0?></g></svg>